<svg xmlns="http://www.w3.org/2000/svg" xmlns:xlink="http://www.w3.org/1999/xlink" xmlns:fi="http://pattern.flaticon.com/" x="0" y="0" width="2160" height="1080" viewBox="0 0 2160 1080"><rect x="0px" y="0px" width="100%" height="100%" opacity="1" fill="#2bc592"/><defs><g transform="matrix(0.13780206441879272 0 0 0.13780206441879272 315 315)" id="L1_978"><path d="m444.336 213.712-44.91 44.91 25.626 101.652 82.923-82.923z" fill="#2f374f"/><path d="m232.203 1.58-82.105 82.106 100.762 26.517 44.983-44.984z" fill="#3b5a71"/><path d="m31.092 294.616-31.092 31.091 113.369 73.134 63.632-113.343z" fill="#4bb9ec"/><path d="m107.963 392.181 72.349 113.837 31.091-31.089 9.119-145.911z" fill="#1982bf"/><path d="m398.505 152.037-114.364 123.511 143.284 230.847 55.061-55.063z" fill="#1982bf"/><path d="m58.095 27.197-55.002 55 230.916 143.214 123.523-114.372z" fill="#4bb9ec"/><path d="m492.045 14.06-385.37 385.37-13.73-13.72 13.25-33.83c18.14-41.22 37.35-70.73 62.31-95.68l187.16-187.16c24.31-24.31 56.06-44.96 94.35-61.38l3.46-1.48c13.05-5.59 27.97-2.72 38.02 7.32z" fill="#edf5ff"/><path d="m502.345 55.05c-14.41 33.64-31.85 68.87-61.61 98.62l-187.38 187.38c-29.39 29.39-63.85 46.82-96.71 61.28l-.57.24-33.25 13.01-16.15-16.15 385.37-385.37 2.98 2.98c10.04 10.04 12.92 24.96 7.32 38.01z" fill="#d5e8fe"/></g><g transform="matrix(0.0977274477481842 0 0 0.0977274477481842 150 325)" id="L1_979"><path d="M319.77,338.039c0,4.949-1.811,9.236-5.424,12.847c-3.617,3.621-7.902,5.428-12.851,5.428h-91.361    c-4.952,0-9.233-1.807-12.85-5.428c-3.616-3.61-5.424-7.897-5.424-12.847V292.36H0v137.044c0,12.56,4.471,23.312,13.418,32.257    c8.945,8.946,19.701,13.419,32.264,13.419h420.266c12.56,0,23.315-4.473,32.261-13.419c8.949-8.945,13.418-19.697,13.418-32.257    V292.36H319.77V338.039L319.77,338.039z"/><rect x="219px" y="292px" width="73px" height="36px"/><path d="M498.208,123.054c-8.945-8.947-19.701-13.418-32.261-13.418H365.446V63.953c0-7.614-2.663-14.084-7.994-19.414    c-5.325-5.327-11.8-7.993-19.411-7.993H173.589c-7.612,0-14.083,2.666-19.414,7.993s-7.994,11.799-7.994,19.414v45.683H45.682    c-12.562,0-23.318,4.471-32.264,13.418C4.471,132,0,142.75,0,155.313v109.636h511.626V155.313    C511.626,142.75,507.158,132,498.208,123.054z M328.904,109.636H182.725V73.089h146.179V109.636z"/></g><path d="M612,295.672c0,140.552-103.671,257.344-238.56,277.937c1.138-6.238,1.457-12.698,0.691-19.244   c0,0-0.806-6.888-1.86-15.903c47.891-8.159,91.129-30.134,125.4-61.737c-2.057-1.711-4.106-3.93-6.126-6.876   c-9.102-13.281,2.8-26.459,2.8-38.073c0-11.392-22.967-10.455-23.808-18c-2.902-26.13,16.035-26.486,26.131-36.582   s-9.979-33.049-22.946-31.568c-13.055,1.394-49.802-6.029-46.444-34.144c4.091-34.243-43.627-31.222-50.46-47.205   c-9.961-23.297,6.598-51.873,28.196-58.365c30.592-9.195,60.729-34.152,58.375-61.934c-2.667-31.465-16.909-59.842-40.366-76.699   c-24.41-9.889-50.731-16.004-78.269-17.547c-24.577,0.972-46.185,6.434-45.199,17.686c2.417,27.574,80.828,34.736,67.67,60.512   c-6.86,13.437-58.344,32.402-48.729,52.4c6.254,13.005,21.645,1.859,15.899,26.826c-2.644,11.488-12.717,33.073-28.208,34.466   c-15.841,1.479-29.032-40.487-72.15-41.863c-20.384-0.652-49.101,31.804-24.717,54.83c14.766,13.944,42.475-16.759,50.653,7.225   c5.763,16.901-0.776,52.405,26.121,67.243c9.805,5.409,24.836,10.124,39.702,17.678c-22.065,4.506-49.177,12.914-81.192,25.246   l-26.974-7.117c11.292-9.4,29.639-16.017,25.023-36.557c-6.781-30.177-59.178-18.796-95.301-54.918   c-11.082-11.08-34.719-47.873-34.622-92.077c-18.006,34.202-28.254,73.098-28.254,114.361c0,12.701,0.969,25.181,2.832,37.37   c-0.425-0.007-0.845-0.081-1.269-0.081c-11.376,0-22.533,2.39-32.873,6.909c-2.284-14.405-3.503-29.159-3.503-44.197   c0-155.035,126.133-281.172,281.167-281.172C485.867,14.5,612,140.637,612,295.672z M401.089,377.624l-68.67,31.565l1.065-14.963   l44.486-20.082c-6.345-0.454-12.919-0.627-19.483-0.627c-24.579,0-66.106,12.442-112.036,30.673L99.144,365.335   c-13.766-3.632-28.422-1.395-40.479,6.18l-7.243,4.55c-7.071,4.442-7.146,14.722-0.141,19.268l88.549,57.448   c-21.153,10.818-41.222,21.805-58.914,32.298l-45.438-24.056c-7.422-3.929-16.197-4.395-23.992-1.273l-4.301,1.724   c-6.414,2.567-9.101,10.195-5.711,16.216l25.031,44.472l0.011-0.004c-9.444,8.125-14.826,14.863-14.826,19.526   c0,13.956,17.174,17.444,32.312,17.444c27,0,383.567-81.641,383.567-155.605C427.567,388.875,417.549,381.549,401.089,377.624z    M250.751,522.033l78.463-27.64c3.456-1.218,7.149,1.086,7.575,4.726l6.879,58.815c1.719,14.697-6.186,28.84-19.604,35.078   l-7.359,3.42c-4.596,2.136-10.048,0.991-13.397-2.812L248.36,531.2C245.685,528.16,246.931,523.379,250.751,522.033z" transform="matrix(0.08169934898614883 0 0 0.08169934898614883 62.5 150)" id="L1_980"/><path d="M45.961,18.702c-0.033-0.038-0.061-0.075-0.1-0.112l-1.717-1.657c1.424-0.323,2.957-1.516,2.957-2.74   c0-1.426-1.979-1.932-3.668-1.932c-1.766,0-1.971,1.21-1.992,2.065l-4.43-4.271c-0.9-0.891-2.607-1.592-3.883-1.592H24.5h-0.002   h-8.63c-1.275,0-2.981,0.701-3.882,1.592l-4.429,4.271c-0.023-0.855-0.228-2.065-1.992-2.065c-1.691,0-3.669,0.506-3.669,1.932   c0,1.224,1.534,2.417,2.958,2.74l-1.717,1.657c-0.039,0.037-0.066,0.074-0.1,0.112C1.2,20.272,0,23.184,0,25.297v6.279   c0,1.524,0.601,2.907,1.572,3.938v2.435c0,1.424,1.192,2.585,2.658,2.585h3.214c1.466,0,2.657-1.159,2.657-2.585v-0.623h14.397   H24.5h14.396v0.623c0,1.426,1.19,2.585,2.658,2.585h3.213c1.467,0,2.657-1.161,2.657-2.585v-2.435   c0.972-1.031,1.572-2.414,1.572-3.938v-6.279C48.998,23.184,47.798,20.272,45.961,18.702z M13.613,11.953   c0.623-0.519,1.712-0.913,2.255-0.913h8.63H24.5h8.63c0.543,0,1.632,0.394,2.255,0.913l5.809,5.63H24.5h-0.002H7.805L13.613,11.953   z M1.993,24.347c0-1.546,1.21-2.801,2.704-2.801c1.493,0,6.372,2.864,6.372,4.41s-4.879,1.188-6.372,1.188   C3.203,27.144,1.993,25.894,1.993,24.347z M10.102,34.573H9.587H9.072l-3.055,0.005c-0.848-0.264-1.446-0.572-1.869-0.903   c-0.214-0.167-0.378-0.341-0.506-0.514c-0.129-0.175-0.223-0.347-0.284-0.519c-0.38-1.074,0.405-2.061,0.405-2.061h5.214   l3.476,3.99L10.102,34.573L10.102,34.573z M31.996,34.575H24.5h-0.002h-7.496c-1.563,0-2.832-1.269-2.832-2.831h10.328H24.5h10.328   C34.828,33.308,33.559,34.575,31.996,34.575z M32.654,29.812H24.5h-0.002h-8.154c-1.7,0-3.08-2.096-3.08-4.681h11.234H24.5h11.234   C35.734,27.717,34.354,29.812,32.654,29.812z M45.641,32.644c-0.062,0.172-0.156,0.344-0.285,0.518   c-0.127,0.173-0.291,0.347-0.506,0.514c-0.422,0.331-1.021,0.641-1.869,0.903l-3.055-0.005h-0.515h-0.515h-2.353l3.478-3.99h5.213   C45.234,30.583,46.02,31.568,45.641,32.644z M44.301,27.144c-1.492,0-6.371,0.356-6.371-1.188s4.879-4.41,6.371-4.41   c1.494,0,2.704,1.255,2.704,2.801C47.005,25.892,45.795,27.144,44.301,27.144z" transform="matrix(1.0204497575759888 0 0 1.0204497575759888 237.5 150)" id="L1_981"/></defs><g fi:class="KUsePattern"><pattern id="pattern_L1_978" width="350" height="350" patternUnits="userSpaceOnUse"><use xlink:href="#L1_978" x="-350" y="-350"/><use xlink:href="#L1_978" x="0" y="-350"/><use xlink:href="#L1_978" x="350" y="-350"/><use xlink:href="#L1_978" x="-350" y="0"/><use xlink:href="#L1_978" x="0" y="0"/><use xlink:href="#L1_978" x="350" y="0"/><use xlink:href="#L1_978" x="-350" y="350"/><use xlink:href="#L1_978" x="0" y="350"/><use xlink:href="#L1_978" x="350" y="350"/></pattern><rect x="0" y="0" width="100%" height="100%" fill="url(#pattern_L1_978)"/></g><g fi:class="KUsePattern"><pattern id="pattern_L1_979" width="350" height="350" patternUnits="userSpaceOnUse"><use xlink:href="#L1_979" x="-350" y="-350"/><use xlink:href="#L1_979" x="0" y="-350"/><use xlink:href="#L1_979" x="350" y="-350"/><use xlink:href="#L1_979" x="-350" y="0"/><use xlink:href="#L1_979" x="0" y="0"/><use xlink:href="#L1_979" x="350" y="0"/><use xlink:href="#L1_979" x="-350" y="350"/><use xlink:href="#L1_979" x="0" y="350"/><use xlink:href="#L1_979" x="350" y="350"/></pattern><rect x="0" y="0" width="100%" height="100%" fill="url(#pattern_L1_979)"/></g><g fi:class="KUsePattern"><pattern id="pattern_L1_980" width="350" height="350" patternUnits="userSpaceOnUse"><use xlink:href="#L1_980" x="-350" y="-350"/><use xlink:href="#L1_980" x="0" y="-350"/><use xlink:href="#L1_980" x="350" y="-350"/><use xlink:href="#L1_980" x="-350" y="0"/><use xlink:href="#L1_980" x="0" y="0"/><use xlink:href="#L1_980" x="350" y="0"/><use xlink:href="#L1_980" x="-350" y="350"/><use xlink:href="#L1_980" x="0" y="350"/><use xlink:href="#L1_980" x="350" y="350"/></pattern><rect x="0" y="0" width="100%" height="100%" fill="url(#pattern_L1_980)"/></g><g fi:class="KUsePattern"><pattern id="pattern_L1_981" width="350" height="350" patternUnits="userSpaceOnUse"><use xlink:href="#L1_981" x="-350" y="-350"/><use xlink:href="#L1_981" x="0" y="-350"/><use xlink:href="#L1_981" x="350" y="-350"/><use xlink:href="#L1_981" x="-350" y="0"/><use xlink:href="#L1_981" x="0" y="0"/><use xlink:href="#L1_981" x="350" y="0"/><use xlink:href="#L1_981" x="-350" y="350"/><use xlink:href="#L1_981" x="0" y="350"/><use xlink:href="#L1_981" x="350" y="350"/></pattern><rect x="0" y="0" width="100%" height="100%" fill="url(#pattern_L1_981)"/></g></svg>