<svg xmlns="http://www.w3.org/2000/svg" xmlns:xlink="http://www.w3.org/1999/xlink" xmlns:fi="http://pattern.flaticon.com/" x="0" y="0" width="2160" height="1080" viewBox="0 0 2160 1080"><rect x="0px" y="0px" width="100%" height="100%" opacity="1" fill="#f8fcf0"/><defs><g transform="matrix(0.18111109242920032 0.04852857095672264 -0.04852857095672264 0.18111109242920032 317.4341874549868 297.55296950038854)" id="L1_1477"><path d="m232 128h-48v-88h16c4.417969 0 8-3.582031 8-8v-24c0-4.417969-3.582031-8-8-8h-128c-4.417969 0-8 3.582031-8 8v24c0 4.417969 3.582031 8 8 8h16v88h-48c-22.082031.027344-39.9726562 17.917969-40 40v248c.0273438 22.082031 17.917969 39.972656 40 40v16c0 4.417969 3.582031 8 8 8h32c4.417969 0 8-3.582031 8-8v-16h96v16c0 4.417969 3.582031 8 8 8h32c4.417969 0 8-3.582031 8-8v-16c22.082031-.027344 39.972656-17.917969 40-40v-248c-.027344-22.082031-17.917969-39.972656-40-40zm-152-112h112v8h-112zm24 24h64v88h-64zm-32 424h-16v-8h16zm144 0h-16v-8h16zm40-48c0 13.253906-10.746094 24-24 24h-192c-13.253906 0-24-10.746094-24-24v-248c0-13.253906 10.746094-24 24-24h192c13.253906 0 24 10.746094 24 24zm0 0"/><path d="m136 160c-4.417969 0-8 3.582031-8 8v248c0 4.417969 3.582031 8 8 8s8-3.582031 8-8v-248c0-4.417969-3.582031-8-8-8zm0 0"/><path d="m200 176c-4.417969 0-8 3.582031-8 8v216c0 4.417969 3.582031 8 8 8s8-3.582031 8-8v-216c0-4.417969-3.582031-8-8-8zm0 0"/><path d="m72 176c-4.417969 0-8 3.582031-8 8v216c0 4.417969 3.582031 8 8 8s8-3.582031 8-8v-216c0-4.417969-3.582031-8-8-8zm0 0"/></g><path d="M604.131,440.17h-19.12V333.237c0-12.512-3.776-24.787-10.78-35.173l-47.92-70.975   c-11.725-17.311-31.238-27.698-52.169-27.698h-74.28c-8.734,0-15.737,7.082-15.737,15.738v225.043H262.475   c11.567,9.992,19.514,23.92,21.796,39.658H412.53c4.563-31.238,31.475-55.396,63.972-55.396c32.498,0,59.33,24.158,63.895,55.396   h63.735c4.328,0,7.869-3.541,7.869-7.869V448.04C612,443.713,608.46,440.17,604.131,440.17z M525.76,312.227h-98.044   c-4.327,0-7.868-3.463-7.868-7.869v-54.372c0-4.328,3.541-7.869,7.868-7.869h59.724c2.597,0,4.957,1.259,6.452,3.305l38.32,54.451   C535.831,305.067,532.133,312.227,525.76,312.227z M476.502,440.17c-27.068,0-48.943,21.953-48.943,49.021   c0,26.99,21.875,48.943,48.943,48.943c26.989,0,48.943-21.953,48.943-48.943C525.445,462.125,503.491,440.17,476.502,440.17z    M476.502,513.665c-13.535,0-24.472-11.016-24.472-24.471c0-13.535,10.937-24.473,24.472-24.473   c13.533,0,24.472,10.938,24.472,24.473C500.974,502.649,490.036,513.665,476.502,513.665z M68.434,440.17   c-4.328,0-7.869,3.543-7.869,7.869v23.922c0,4.328,3.541,7.869,7.869,7.869h87.971c2.282-15.738,10.229-29.666,21.718-39.658   H68.434V440.17z M220.298,440.17c-26.989,0-48.943,21.953-48.943,49.021c0,26.99,21.954,48.943,48.943,48.943   c27.068,0,48.943-21.953,48.943-48.943C269.242,462.125,247.367,440.17,220.298,440.17z M220.298,513.665   c-13.534,0-24.471-11.016-24.471-24.471c0-13.535,10.937-24.473,24.471-24.473c13.534,0,24.472,10.938,24.472,24.473   C244.77,502.649,233.832,513.665,220.298,513.665z M338.014,150.605h-91.198c4.485,13.298,6.846,27.54,6.846,42.255   c0,74.28-60.431,134.711-134.711,134.711c-13.535,0-26.675-2.045-39.029-5.744v86.949c0,4.328,3.541,7.869,7.869,7.869h265.96   c4.329,0,7.869-3.541,7.869-7.869V174.211C361.619,161.149,351.075,150.605,338.014,150.605z M118.969,73.866   C53.264,73.866,0,127.129,0,192.834s53.264,118.969,118.969,118.969s118.97-53.264,118.97-118.969S184.674,73.866,118.969,73.866z    M118.969,284.73c-50.752,0-91.896-41.143-91.896-91.896c0-50.753,41.144-91.896,91.896-91.896   c50.753,0,91.896,41.144,91.896,91.896C210.865,243.587,169.722,284.73,118.969,284.73z M154.066,212.242   c-1.014,0-2.052-0.131-3.082-0.407L112.641,201.5c-5.148-1.391-8.729-6.062-8.729-11.396v-59.015   c0-6.516,5.287-11.803,11.803-11.803c6.516,0,11.803,5.287,11.803,11.803v49.971l29.614,7.983   c6.294,1.698,10.02,8.177,8.322,14.469C164.033,208.776,159.269,212.242,154.066,212.242z" transform="matrix(0.032679684460163116 0 0 0.032679684460163116 77.5 340)" id="L1_1478"/><path d="M149.997,0C67.158,0,0.003,67.161,0.003,149.997S67.158,300,149.997,300s150-67.163,150-150.003S232.837,0,149.997,0z     M222.978,99.461l-32.435,30.711l20.562,82.844l-12.27,12.27l-39.262-64.028l-0.905-0.905l-40.385,38.24    c-0.228,0.231-0.485,0.405-0.718,0.622l-1.297,29.481l-44.965-44.962l29.471-1.294c0.218-0.239,0.394-0.493,0.625-0.724    l38.24-40.387L139.314,141l-64.601-39.832l12.27-12.27l82.471,20.946l31.079-32.827c6.201-6.201,16.251-6.199,22.447,0    C229.177,83.215,229.177,93.263,222.978,99.461z" transform="matrix(0.13333334028720856 0 0 0.13333334028720856 155 330)" id="L1_1479"/><g transform="matrix(0.13206017156295854 -0.03538541632261026 0.03538541632261026 0.13206017156295854 132.1339295012944 150.25126265847084)" id="L1_1480"><path d="M185.389,494.93c-1.859-1.86-4.439-2.93-7.07-2.93c-2.63,0-5.21,1.07-7.069,2.93c-1.86,1.86-2.931,4.44-2.931,7.07    s1.07,5.21,2.931,7.07c1.859,1.86,4.439,2.93,7.069,2.93c2.631,0,5.211-1.07,7.07-2.93c1.86-1.86,2.93-4.44,2.93-7.07    S187.25,496.79,185.389,494.93z"/><path d="M354.922,415.17c-5.522,0-10,4.477-10,10c0,18.608-15.139,33.748-33.747,33.748c-5.522,0-10,4.477-10,10s4.478,10,10,10    c29.636,0,53.747-24.111,53.747-53.748C364.922,419.647,360.444,415.17,354.922,415.17z"/><path d="M428,0c-46.317,0-84,37.682-84,84v120c0,42.932,32.382,78.422,74,83.384V375h-35.993    c-15.748-22.169-41.629-36.661-70.832-36.661c-7.646,0-15.064,0.998-22.133,2.862L255.688,256h40.667    c2.349,0,4.415,1.5,5.142,3.735c0.741,2.279-0.163,4.016-0.768,4.848c-0.604,0.833-1.977,2.229-4.374,2.229h-10.222    c-5.522,0-10,4.477-10,10s4.478,10,10,10h10.222c8.228,0,15.72-3.818,20.556-10.475c4.835-6.656,6.149-14.962,3.606-22.785    C317.104,243.054,307.395,236,296.354,236h-55.321c-3.306,0-6.396,1.633-8.26,4.363c-1.864,2.73-2.257,6.205-1.052,9.282    l18.781,47.974h-83.107l-7.526-17.215l-2.843-7.245c-1.502-3.829-5.195-6.347-9.309-6.347h-43.482    c-8.406,0-16.253,4.146-20.988,11.092c-4.736,6.946-5.73,15.765-2.659,23.591c3.844,9.794,13.126,16.124,23.647,16.124h33.142    l-16.085,27.86c-10.571-4.589-22.224-7.14-34.463-7.14C38.952,338.34,0,377.292,0,425.17c0,26.85,12.251,50.89,31.456,66.83H10    c-5.522,0-10,4.477-10,10s4.478,10,10,10h76.83c44.496,0,81.276-33.645,86.251-76.83h39.162c3.374,0,6.521-1.702,8.368-4.525    c1.848-2.824,2.146-6.389,0.795-9.48L176.139,317.62h82.193l12.095,30.895c-27.395,14.621-46.083,43.495-46.083,76.655    c0,26.85,12.251,50.89,31.456,66.83h-35.48c-5.522,0-10,4.477-10,10s4.478,10,10,10h90.854c47.878,0,86.83-38.952,86.83-86.83    c0-10.604-1.914-20.768-5.409-30.169h71.737c5.522,0,10-4.477,10-10s-4.478-10-10-10H438v-87.616    c41.618-4.962,74-40.452,74-83.384V84C512,37.682,474.317,0,428,0z M104.235,297.62c-2.238,0-4.212-1.347-5.03-3.43    c-0.907-2.313-0.035-4.137,0.566-5.018c0.601-0.881,1.979-2.359,4.464-2.359h36.664l4.241,10.807H104.235z M86.83,492    C49.979,492,20,462.02,20,425.17s29.979-66.83,66.83-66.83c8.598,0,16.813,1.65,24.37,4.621L78.17,420.17    c-1.786,3.094-1.786,6.906,0,10s5.088,5,8.66,5h32.235c-4.272,13.741-17.107,23.748-32.235,23.748c-5.522,0-10,4.477-10,10    s4.478,10,10,10c26.219,0,48.099-18.875,52.801-43.748h13.279C148.069,467.293,120.282,492,86.83,492z M104.15,415.17    l24.357-42.186c12.849,10.282,21.841,25.19,24.403,42.186H104.15z M196.957,415.17h-23.876    c-2.808-24.372-15.742-45.705-34.482-59.667l18.366-31.811L196.957,415.17z M311.175,492c-36.851,0-66.831-29.98-66.831-66.83    c0-24.693,13.473-46.285,33.443-57.855l24.076,61.501c1.544,3.945,5.318,6.357,9.314,6.357c1.212,0,2.445-0.222,3.643-0.691    c5.143-2.014,7.68-7.814,5.666-12.958l-24.083-61.519c4.756-1.078,9.695-1.666,14.772-1.666c36.851,0,66.83,29.98,66.83,66.83    S348.025,492,311.175,492z M492,204c0,31.888-23.444,58.398-54,63.214V225.63l26.647-28.449    c3.775-4.031,3.568-10.359-0.463-14.134c-4.029-3.775-10.358-3.568-14.135,0.462L438,196.372V164.2l26.647-28.449    c3.775-4.031,3.568-10.359-0.463-14.135c-4.029-3.775-10.358-3.568-14.135,0.462L438,134.943V117.5c0-5.523-4.478-10-10-10    c-5.522,0-10,4.477-10,10v45.028l-10.295-10.991c-3.776-4.031-10.104-4.237-14.135-0.462c-4.031,3.775-4.238,10.104-0.463,14.134    L418,191.785v75.428c-30.556-4.816-54-31.326-54-63.214V84c0-35.29,28.71-64,64-64c35.29,0,64,28.71,64,64V204z"/><path d="M502,375h-0.131c-5.522,0-10,4.477-10,10s4.478,10,10,10H502c5.522,0,10-4.477,10-10S507.522,375,502,375z"/><path d="M238.833,138.667h-16.592c3.937-7.998,6.055-16.869,6.055-25.935c0-32.385-26.347-58.731-58.731-58.731    c-24.116,0-45.227,14.707-54.17,36.036c-5.736-2.759-12.076-4.24-18.562-4.24C73.215,85.796,54,105.011,54,128.629    c0,9.549,3.083,18.59,8.914,26.147c1.894,2.453,4.817,3.891,7.917,3.891h168.002c5.522,0,10-4.477,10-10    S244.355,138.667,238.833,138.667z M198.321,138.666H76.318C74.793,135.568,74,132.164,74,128.629    c0-12.59,10.243-22.833,22.833-22.833c6.453,0,12.637,2.753,16.965,7.554c2.621,2.907,6.695,4.018,10.429,2.842    c3.733-1.175,6.438-4.419,6.922-8.303C133.553,88.569,150.068,74,169.564,74c21.356,0,38.731,17.375,38.731,38.731    C208.295,122.321,204.698,131.585,198.321,138.666z"/></g><path d="M510,255c0-20.4-17.85-38.25-38.25-38.25H331.5L204,12.75h-51l63.75,204H76.5l-38.25-51H0L25.5,255L0,344.25h38.25    l38.25-51h140.25l-63.75,204h51l127.5-204h140.25C492.15,293.25,510,275.4,510,255z" transform="matrix(0.0784313753247261 0 0 0.0784313753247261 67.5 67.5)" id="L1_1481"/><path d="M202.302,353.148c-46.343,23.113-90.541,45.085-146.523,61.376V305.988c0-8.448,4.182-16.346,11.166-21.096l41.807-28.428   c3.571-2.428,10.026-4.415,14.344-4.415h67.119v-39.534h75.523v39.534h57.871c9.393,0,17.006,7.614,17.006,17.006v23.501   C287.413,310.723,244.533,332.091,202.302,353.148z M190.215,173.476v20.514h75.523v-20.514c0-10.51-8.52-19.029-19.029-19.029   h-37.467C198.734,154.447,190.215,162.966,190.215,173.476z M146.352,113.665c5.434,0,10.604-1.118,15.307-3.122   c5.336,7.391,13.97,12.248,23.782,12.248c3.202,0,6.228-0.64,9.113-1.587c-0.046,0.532-0.16,1.044-0.16,1.587   c0,10.061,8.155,18.215,18.215,18.215s18.215-8.155,18.215-18.215c0-10.06-8.155-18.215-18.215-18.215   c-0.004,0-0.008,0.001-0.012,0.001c1.419-3.447,2.226-7.211,2.226-11.169c0-16.228-13.155-29.384-29.383-29.384   c-0.54,0-1.043,0.13-1.575,0.159c-4.575-16.508-19.549-28.695-37.513-28.695c-21.588,0-39.088,17.5-39.088,39.088   C107.264,96.164,124.764,113.665,146.352,113.665z M528.954,496.265c-3.778,5.754-3.881,13.155-0.061,18.881l22.525,33.761   c8.232,12.31-1.351,28.69-16.114,27.549L34.419,537.106c-13.626-1.07-25.016-10.651-28.489-23.872   C2.893,501.669,0,487.318,0,474.604c0-26.148,10.511-31.027,32.011-36.157c192.263-45.878,245.145-156.462,565.948-174.566   c8.333-0.47,15.035,6.81,13.919,15.081C602.372,349.385,568.794,435.601,528.954,496.265z M504.474,413.614   c0-4.7-3.804-8.504-8.504-8.504s-8.503,3.804-8.503,8.504c0,13.133-8.766,24.136-20.711,27.803v-58.622   c6.393-3.17,10.827-9.696,10.827-17.314c0-10.707-8.68-19.387-19.387-19.387c-10.706,0-19.386,8.68-19.386,19.387   c0,7.663,4.484,14.226,10.938,17.373v58.563c-11.945-3.667-20.711-14.67-20.711-27.803c0-4.7-3.804-8.504-8.504-8.504   s-8.504,3.804-8.504,8.504c0,25.485,20.735,46.221,46.221,46.221C483.738,459.835,504.474,439.1,504.474,413.614z" transform="matrix(0.08169934898614883 0 0 0.08169934898614883 62.5 237.5)" id="L1_1482"/><g transform="matrix(0.10194667428731918 0 0 0.10194667428731918 242.5 67.5)" id="L1_1483"><path d="M74.832,334.417c-0.125-0.112-0.254-0.219-0.388-0.321c-4-3.32-8-6.88-11.68-10.56c-2.338-2.313-6.102-2.313-8.44,0    c-2.34,2.343-2.34,6.137,0,8.48c4,4,8,7.72,12.48,11.32c2.463,2.217,6.257,2.017,8.474-0.446    C77.494,340.427,77.295,336.634,74.832,334.417z"/><path d="M12.038,156.534c-3.128-1.093-6.55,0.558-7.643,3.686c-0.162,0.464-0.267,0.947-0.311,1.436    c-1.2,5.48-2.12,11.04-2.8,16.6c-0.428,3.252,1.834,6.245,5.08,6.72h0.76c3.037,0.002,5.596-2.265,5.96-5.28    c0.64-5.2,1.52-10.44,2.64-15.52C16.817,161.048,15.166,157.626,12.038,156.534z"/><path d="M45.004,302.616c-3.08-4.24-6-8.64-8.68-13.12c-1.694-2.848-5.376-3.784-8.224-2.09c-0.005,0.003-0.011,0.006-0.016,0.01    c-2.848,1.694-3.784,5.376-2.09,8.224c0.003,0.005,0.006,0.011,0.01,0.016c2.88,4.8,6,9.52,9.32,14.04    c2.047,2.606,5.819,3.058,8.425,1.011C46.228,308.759,46.777,305.224,45.004,302.616z"/><path d="M24.084,264.776c-1.92-4.84-3.68-9.84-5.16-14.88c-0.923-3.182-4.252-5.014-7.434-4.091    c-0.056,0.016-0.111,0.033-0.166,0.051c-3.149,0.962-4.934,4.283-4,7.44c1.6,5.36,3.44,10.72,5.52,16    c1.248,3.104,4.776,4.608,7.88,3.36S25.332,267.88,24.084,264.776z"/><path d="M27.664,115.396c-2.96-1.491-6.569-0.3-8.06,2.66c-2.52,5-4.84,10.16-6.88,15.4c-1.203,3.07,0.298,6.536,3.36,7.76    c3.081,1.22,6.568-0.288,7.788-3.369c0.004-0.01,0.008-0.021,0.012-0.031c1.92-4.88,4-9.72,6.44-14.36    C31.815,120.496,30.624,116.888,27.664,115.396z"/><path d="M13.286,223.033c-0.001-0.005-0.001-0.011-0.002-0.016c-0.64-5.2-1.08-10.48-1.28-15.68    c-0.121-3.314-2.906-5.901-6.22-5.78c-3.314,0.121-5.901,2.906-5.78,6.22c0,5.6,0.64,11.24,1.36,16.8    c0.41,2.908,2.865,5.091,5.8,5.16h0.92C11.372,229.322,13.701,226.32,13.286,223.033z"/><path d="M172.464,22.876c-0.32-3.314-3.266-5.74-6.58-5.42c-5.56,0.56-11.16,1.36-16.68,2.44c-3.314,0.309-5.749,3.246-5.44,6.56    c0.309,3.314,3.246,5.749,6.56,5.44l-0.04-0.16h1.16c5.16-1,10.4-1.76,15.6-2.28C170.358,29.136,172.784,26.19,172.464,22.876z"/><path d="M53.724,79.096c-2.496-2.209-6.311-1.976-8.52,0.52c-3.68,4.2-7.2,8.64-10.48,13.2c-1.944,2.683-1.345,6.435,1.339,8.379    c1.019,0.738,2.243,1.137,3.501,1.141v0.08c1.931,0.007,3.747-0.916,4.88-2.48c3.08-4.24,6.36-8.4,9.8-12.32    C56.453,85.12,56.22,81.306,53.724,79.096z"/><path d="M212.004,18.456c-5.52-0.84-11.16-1.44-16.76-1.76c-3.314-0.199-6.161,2.326-6.36,5.64    c-0.199,3.314,2.326,6.161,5.64,6.36c5.28,0.4,10.52,0.96,15.68,1.76h0.92c3.314,0.243,6.197-2.246,6.44-5.56    C217.807,21.583,215.318,18.699,212.004,18.456z"/><path d="M87.799,50.507c-1.877-2.549-5.411-3.202-8.075-1.491c-4.6,3.16-9.12,6.6-13.44,10.16c-2.552,2.121-2.901,5.908-0.78,8.46    c2.121,2.552,5.908,2.901,8.46,0.78c4-3.36,8.24-6.56,12.56-9.52C89.193,56.932,89.763,53.176,87.799,50.507z"/><path d="M129.081,31.602c-0.877-3.195-4.179-5.075-7.375-4.197c-0.281,0.077-0.556,0.175-0.823,0.292     c-5.24,1.92-10.48,4-15.52,6.52c-3.005,1.398-4.307,4.967-2.909,7.971c0.98,2.107,3.09,3.453,5.41,3.465     c0.866-0.017,1.719-0.218,2.499-0.596c4.72-2.24,9.6-4.28,14.52-6.08C128.08,38.099,129.959,34.797,129.081,31.602z"/><path d="M201.624,378.676c-0.21-3.314-3.066-5.83-6.38-5.62c-5.24,0.4-10.52,0.52-15.76,0.36c-3.314-0.088-6.072,2.526-6.16,5.84    s2.526,6.072,5.84,6.16h5.08c4,0,8,0,11.76-0.36C199.318,384.847,201.834,381.99,201.624,378.676z"/><path d="M358.664,239.676c-3.214-0.817-6.483,1.126-7.3,4.34c-1.28,5.08-2.84,10.12-4.6,15.04c-1.043,3.09,0.573,6.448,3.64,7.56    c3.119,1.119,6.555-0.503,7.674-3.622c0.002-0.006,0.004-0.012,0.006-0.018c1.88-5.28,3.52-10.68,4.92-16    C363.822,243.762,361.878,240.494,358.664,239.676z"/><path d="M366.324,170.976c-0.92-5.52-2.08-11.08-3.48-16.48c-0.958-3.172-4.307-4.967-7.479-4.008    c-3.007,0.908-4.804,3.982-4.121,7.048c1.32,5.04,2.4,10.24,3.28,15.4c0.517,2.827,2.966,4.89,5.84,4.92h1    C364.633,177.325,366.853,174.246,366.324,170.976z"/><path d="M391.825,102.109c-0.282-0.613-0.668-1.172-1.141-1.652l-10.6-11.04c-1.518-1.516-3.749-2.07-5.8-1.44l-19.12,5.8    l-22.4-23.76l50.28-28c2.93-1.349,4.211-4.818,2.861-7.747c-0.282-0.613-0.668-1.172-1.141-1.652l-14.12-14.12    c-1.539-1.479-3.763-2.001-5.8-1.36l-63.72,19.28l-21.44-22.76c-5.464-6.318-14.359-8.429-22.08-5.24h-0.36    c-5.821,2.396-10.444,7.019-12.84,12.84c-0.604,1.52-1.033,3.103-1.28,4.72l-2.44-0.84c-3.159-1.016-6.544,0.721-7.56,3.88    c-1.016,3.159,0.721,6.544,3.88,7.56c3.08,1,6.16,2.12,9.24,3.28c0.927,1.45,2.014,2.792,3.24,4l22.6,21.44l-6.48,21.4    c-63.378-45.209-151.405-30.48-196.614,32.898S38.51,271,101.888,316.209c63.378,45.209,151.405,30.48,196.614-32.898    c36.052-50.541,34.794-118.718-3.098-167.894l10.24-18.48l23.76,22.4l-5.72,18.92c-0.689,2.079-0.147,4.369,1.4,5.92    c0,0,11.72,11.6,12,12c2.771,1.606,6.32,0.662,7.927-2.109c0.025-0.043,0.05-0.087,0.073-0.131l15.64-28.68l28.24-15.4    C391.894,108.507,393.175,105.038,391.825,102.109z M93.164,110.016c24.115-24.104,56.824-37.631,90.92-37.6    c2.667,0,5.333,0.08,8,0.24c22.68,20.92,16,40,0.8,57.2c-8.97,9.513-18.593,18.388-28.8,26.56c-14.76,12.56-28.52,24.28-33.72,36    c-6.16,13.92-1.64,26.52,23.24,37.52c12.44,5.52,19.2,9.8,21.84,13.04c0.039,0.047,0.077,0.08,0.116,0.109    c-0.082,0.025-0.165,0.052-0.276,0.091c-6.024,2.294-12.436,3.394-18.88,3.24c-30.16,1.28-51.64-18-68.32-32.92    c-12-10.68-21.96-19.56-32.32-19.64C57.476,162.257,70.795,132.401,93.164,110.016z M313.124,201.136h0.04    c-0.018,55.75-35.857,105.176-88.84,122.52c-1.488-9.375,0.246-18.978,4.92-27.24c6.338-10.179,14.47-19.123,24-26.4    c36.92-30.8,39-48,40.6-61.24c1-8.36,1.76-14.6,18.28-23.68C312.787,190.417,313.121,195.774,313.124,201.136z M305.684,157.856    c1.788,5.036,3.257,10.18,4.4,15.4c-25.16,12.8-26.28,21.92-27.8,34.36c-1.36,11.2-3.12,25.84-36.48,53.68    c-10.685,8.175-19.77,18.25-26.8,29.72c-6.129,10.834-8.253,23.478-6,35.72c-69.389,15.862-138.498-27.53-154.36-96.918    c-1.814-7.936-2.872-16.026-3.16-24.162c6.36,0,14.6,7.56,24.72,16.56c18.32,16.36,41.76,37.24,76.68,36    c8.228,0.142,16.397-1.41,24-4.56c3.205-1.417,5.631-4.164,6.64-7.52c0.852-3.743-0.229-7.664-2.88-10.44    c-3.76-4.6-12-10.04-26.16-16.36c-16.92-7.48-20.6-14.76-17.28-22.2c4-9.36,16.88-20,30.56-32c10.66-8.615,20.698-17.971,30.04-28    c16.72-19.04,25.32-39.8,8.32-62.52c18.893,3.862,36.669,11.944,52,23.64l-9.2,30.36c-0.679,2.08-0.139,4.365,1.4,5.92    c0,0,14.92,14.8,15.4,15.08c2.771,1.606,6.32,0.662,7.927-2.109c0.025-0.043,0.049-0.087,0.073-0.131l11.64-21.04    C296.235,136.038,301.727,146.646,305.684,157.856z M359.324,113.176l-5.16,2.56c-1.155,0.573-2.085,1.516-2.64,2.68l-2.56,5.2    l-9.96,18l-2.92-3.2l5.8-19.16c0.676-2.245-0.066-4.675-1.88-6.16l-31.56-29.72c-2.285-2.245-5.957-2.212-8.202,0.073    c-0.054,0.055-0.106,0.11-0.158,0.167c-0.4,0.44-28.8,51.6-28.8,51.6l-6.2-6.2l19.36-63.8c0.694-2.257-0.05-4.709-1.88-6.2    l-25.12-23.64c-2.78-2.355-3.704-6.246-2.28-9.6c1.276-2.906,3.606-5.221,6.52-6.48h0.2c3.313-1.279,7.072-0.315,9.36,2.4    l24,25.36c1.507,1.618,3.803,2.239,5.92,1.6l64-19.32l6.2,6.2l-50.8,27.92c-2.812,1.534-3.848,5.058-2.313,7.869    c0.024,0.044,0.048,0.087,0.073,0.131c0.24,0.44,30.84,33,30.84,33c1.516,1.604,3.811,2.209,5.92,1.56l19.24-5.8l3,3    L359.324,113.176z"/><path d="M343.87,281.844c-0.087-0.051-0.176-0.101-0.266-0.147c-2.867-1.499-6.406-0.455-8,2.36c-2.52,4.6-5.28,9.12-8.24,13.44    c-1.911,2.717-1.257,6.469,1.46,8.38c2.717,1.911,6.469,1.257,8.38-1.46c3.12-4.64,6.08-9.48,8.8-14.36    C347.683,287.199,346.727,283.522,343.87,281.844z"/><path d="M362.844,194.256c-3.313-0.045-6.036,2.604-6.082,5.917c-0.001,0.081-0.001,0.162,0.002,0.243v0.68    c0,5.24-0.24,10.52-0.72,15.76c-0.3,3.3,2.131,6.219,5.431,6.519c0.003,0,0.006,0.001,0.009,0.001h0.56    c3.165,0.03,5.808-2.404,6.04-5.56c0.52-5.56,0.76-11.2,0.76-16.8v-0.8C368.822,196.918,366.142,194.256,362.844,194.256z"/><path d="M152.164,370.416c-5.2-0.88-10.36-2-15.36-3.52c-3.126-1.099-6.551,0.544-7.651,3.67s0.544,6.551,3.67,7.651    c0.229,0.081,0.464,0.147,0.701,0.2c5.36,1.52,10.88,2.84,16.4,4h1.12c3.314,0.309,6.251-2.126,6.56-5.44    C157.913,373.663,155.478,370.726,152.164,370.416z"/><path d="M245.001,368.593c-1.085-2.946-4.258-4.558-7.277-3.696v0.16c-4.96,1.64-10.08,3.04-15.16,4    c-3.236,0.729-5.269,3.944-4.54,7.18c0.729,3.236,3.944,5.269,7.18,4.54c5.44-1.24,10.92-2.76,16.24-4.48    C244.554,375.151,246.146,371.702,245.001,368.593z"/><path d="M111.004,357.336c-4.76-2.36-9.44-4.92-13.96-7.48c-2.861-1.679-6.541-0.721-8.22,2.14    c-1.679,2.861-0.721,6.541,2.14,8.22c4.84,2.84,9.84,5.48,14.92,8c3.004,1.414,6.586,0.124,8-2.88    C115.298,362.332,114.009,358.75,111.004,357.336z"/><path d="M318.379,318.74c-2.404-2.195-6.121-2.073-8.375,0.277h0.04c-3.6,4-7.4,7.52-11.28,11c-2.474,2.209-2.689,6.006-0.48,8.48    c2.209,2.474,6.006,2.689,8.48,0.48c4-3.72,8.24-7.68,12-11.76C320.999,324.769,320.826,320.974,318.379,318.74z"/><path d="M285.275,348.668c-1.7-2.844-5.384-3.771-8.229-2.071c-0.096,0.057-0.19,0.117-0.282,0.18v-0.16c-4.4,2.8-9,5.44-13.64,8    c-2.949,1.513-4.113,5.131-2.6,8.08c1.513,2.949,5.131,4.113,8.08,2.6c4.96-2.56,9.88-5.4,14.6-8.4    C286.048,355.196,286.976,351.512,285.275,348.668z"/></g><path d="M497.535,14.465c-19.569-19.568-51.395-19.241-70.557,0.726L322.092,124.488L66.131,39.781L12.4,93.513l213.352,131.365    L117.796,337.372l-69.231-11.366L0,374.571l101.78,35.649L137.429,512l48.565-48.565l-11.366-69.231l112.494-107.955    L418.487,499.6l53.732-53.732l-84.706-255.961L496.808,85.022C516.776,65.86,517.103,34.034,497.535,14.465z" transform="matrix(0.0390625 0 0 0.0390625 252.5 340)" id="L1_1484"/><g transform="matrix(0.17578125 0 0 0.17578125 217.5 217.5)" id="L1_1485"><path d="M120,236a52,52,0,1,0,52,52A52.059,52.059,0,0,0,120,236Zm0,76a24,24,0,1,1,24-24A24,24,0,0,1,120,312Z"/><path d="M408,236a52,52,0,1,0,52,52A52.059,52.059,0,0,0,408,236Zm0,76a24,24,0,1,1,24-24A24,24,0,0,1,408,312Z"/><path d="M477.4,193.04,384,176l-79.515-65.975A44.109,44.109,0,0,0,276.526,100H159.38a43.785,43.785,0,0,0-34.359,16.514L74.232,176H40A36.04,36.04,0,0,0,4,212v44a44.049,44.049,0,0,0,44,44h9.145a64,64,0,1,1,125.71,0h162.29a64,64,0,1,1,125.71,0H472a36.04,36.04,0,0,0,36-36V228.632A35.791,35.791,0,0,0,477.4,193.04ZM180,164a12,12,0,0,1-12,12H115.245a6,6,0,0,1-4.563-9.9l34.916-40.9A12,12,0,0,1,154.724,121H168a12,12,0,0,1,12,12Zm60,56H224a12,12,0,0,1,0-24h16a12,12,0,0,1,0,24Zm94.479-43.706-114.507-.266a12,12,0,0,1-11.972-12V133a12,12,0,0,1,12-12h57.548a12,12,0,0,1,7.433,2.58l53.228,42A6,6,0,0,1,334.479,176.294Z"/></g><g transform="matrix(0.13671447336673737 0 0 0.13671447336673737 315 140)" id="L1_1486"><path d="m453.47 1.565c-2.933-1.027-5.973-1.549-9.035-1.549-15.123 0-27.427 12.361-27.427 27.555v52.451h-210.716c-7.346 0-14.252 2.861-19.445 8.055l-20 20c-4.873 4.875-12.805 4.875-17.678 0l-20-19.999c-5.193-5.194-12.1-8.056-19.445-8.056h-14.716v-52.451c0-8.918-4.348-17.324-11.63-22.488-7.33-5.197-16.383-6.481-24.831-3.517-35.013 12.277-58.539 45.468-58.539 82.591v340.359c0 48.248 39.252 87.5 87.5 87.5h204.591c7.346 0 14.251-2.86 19.445-8.054l20-20c4.873-4.875 12.805-4.875 17.678 0l20 20c5.194 5.193 12.1 8.054 19.445 8.054h35.841c18.216 0 35.678-5.545 50.499-16.034 3.381-2.394 4.182-7.074 1.789-10.455-2.394-3.381-7.074-4.181-10.455-1.789-12.273 8.687-26.738 13.278-41.833 13.278h-35.841c-3.339 0-6.478-1.3-8.838-3.661l-20-20c-10.723-10.721-28.17-10.721-38.893 0l-20 20c-2.36 2.361-5.499 3.661-8.838 3.661h-204.59c-39.977 0-72.5-32.523-72.5-72.5 0-34.293 24.343-64.164 57.88-71.027 12.817-2.622 22.12-13.9 22.12-26.816v-50.989c0-4.143-3.357-7.5-7.5-7.5s-7.5 3.357-7.5 7.5v50.989c0 5.917-4.164 10.901-10.127 12.121-22.984 4.703-42.39 18.354-54.873 36.85v-291.487c0-30.762 19.491-58.264 48.502-68.437 3.801-1.331 7.88-.749 11.192 1.599 3.372 2.391 5.306 6.128 5.306 10.252v218.112c0 4.143 3.357 7.5 7.5 7.5s7.5-3.357 7.5-7.5v-150.661h14.716c3.339 0 6.478 1.3 8.838 3.662l20 20c5.361 5.361 12.404 8.041 19.446 8.041s14.085-2.68 19.446-8.041l20-20.001c2.36-2.361 5.499-3.661 8.838-3.661h210.716v97.218c0 7.346 2.86 14.251 8.054 19.445l20 20c2.361 2.36 3.662 5.5 3.662 8.839 0 3.338-1.301 6.478-3.662 8.838l-20 20.001c-5.193 5.194-8.054 12.101-8.054 19.445v37.864c0 12.916 9.303 24.194 22.119 26.816 33.538 6.863 57.881 36.734 57.881 71.027 0 14.622-4.33 28.711-12.522 40.744-2.33 3.424-1.444 8.09 1.979 10.421 1.292.879 2.761 1.301 4.214 1.301 2.398 0 4.755-1.148 6.207-3.28 9.893-14.532 15.122-31.541 15.122-49.186v-340.358c0-37.122-23.524-70.314-58.538-82.592zm-11.336 337.229c-5.962-1.22-10.126-6.204-10.126-12.121v-37.864c0-3.339 1.3-6.479 3.661-8.839l20-20c10.722-10.723 10.722-28.169 0-38.892l-20-20c-2.327-2.326-3.661-5.548-3.661-8.838v-164.669c0-6.923 5.574-12.555 12.427-12.555 1.368 0 2.738.237 4.072.704 29.01 10.173 48.501 37.676 48.501 68.437v291.486c-12.483-18.496-31.889-32.146-54.874-36.849z"/><path d="m207.508 183.062c0-20.678-16.822-37.5-37.5-37.5s-37.5 16.822-37.5 37.5 16.822 37.5 37.5 37.5 37.5-16.822 37.5-37.5zm-37.5 22.5c-12.406 0-22.5-10.094-22.5-22.5s10.094-22.5 22.5-22.5 22.5 10.094 22.5 22.5-10.094 22.5-22.5 22.5z"/><path d="m377.312 319.584c-2.93-2.928-7.678-2.928-10.607 0l-14.696 14.696-14.696-14.696c-2.93-2.928-7.678-2.928-10.607 0-2.929 2.93-2.929 7.678 0 10.607l14.696 14.696-14.696 14.696c-2.929 2.93-2.929 7.678 0 10.607 1.465 1.464 3.385 2.196 5.304 2.196s3.839-.732 5.304-2.196l14.696-14.696 14.696 14.696c1.465 1.464 3.385 2.196 5.304 2.196s3.839-.732 5.304-2.196c2.929-2.93 2.929-7.678 0-10.607l-14.696-14.696 14.696-14.696c2.927-2.93 2.927-7.678-.002-10.607z"/><path d="m240.008 190.562h7.5c4.143 0 7.5-3.357 7.5-7.5s-3.357-7.5-7.5-7.5h-7.5c-4.143 0-7.5 3.357-7.5 7.5s3.358 7.5 7.5 7.5z"/><path d="m355.587 231.255c.127.006.253.009.378.009 3.971 0 7.285-3.118 7.485-7.128.038-.771.058-1.547.058-2.327 0-5.123-.834-10.16-2.479-14.971-1.341-3.92-5.609-6.007-9.523-4.67-3.92 1.341-6.01 5.604-4.67 9.523 1.11 3.245 1.673 6.649 1.673 10.117 0 .53-.014 1.058-.04 1.583-.206 4.137 2.981 7.658 7.118 7.864z"/><path d="m299.207 183.062c0-4.143-3.357-7.5-7.5-7.5h-14.733c-4.143 0-7.5 3.357-7.5 7.5s3.357 7.5 7.5 7.5h14.733c4.143 0 7.5-3.357 7.5-7.5z"/><path d="m310.027 260.554c0-4.143-3.357-7.5-7.5-7.5h-14.732c-4.143 0-7.5 3.357-7.5 7.5s3.357 7.5 7.5 7.5h14.732c4.142 0 7.5-3.357 7.5-7.5z"/><path d="m335.187 194.953c2.702 0 5.313-1.466 6.652-4.027 1.919-3.671.499-8.202-3.172-10.121-5.234-2.736-10.872-4.422-16.756-5.011-4.115-.411-7.798 2.594-8.209 6.717-.412 4.121 2.595 7.797 6.717 8.209 3.969.396 7.771 1.533 11.299 3.378 1.11.579 2.298.855 3.469.855z"/><path d="m331.641 265.302c.927 0 1.869-.173 2.782-.538 5.47-2.187 10.417-5.362 14.704-9.438 3.002-2.854 3.121-7.602.268-10.604-2.855-3.003-7.602-3.121-10.604-.268-2.9 2.758-6.243 4.905-9.937 6.382-3.846 1.537-5.718 5.902-4.18 9.748 1.174 2.933 3.99 4.718 6.967 4.718z"/><path d="m209.038 444.763c.667 0 1.347-.09 2.021-.278 5.509-1.538 10.718-3.938 15.482-7.132 3.441-2.307 4.36-6.965 2.054-10.405-2.308-3.441-6.968-4.361-10.405-2.054-3.438 2.305-7.194 4.035-11.164 5.144-3.99 1.114-6.321 5.251-5.207 9.24.926 3.316 3.938 5.485 7.219 5.485z"/><path d="m199.396 268.054h14.732c4.143 0 7.5-3.357 7.5-7.5s-3.357-7.5-7.5-7.5h-14.732c-4.143 0-7.5 3.357-7.5 7.5s3.357 7.5 7.5 7.5z"/><path d="m162.664 434.552c4.466 3.597 9.441 6.442 14.788 8.46.872.328 1.767.484 2.646.484 3.03 0 5.885-1.851 7.019-4.854 1.462-3.875-.494-8.202-4.37-9.665-3.857-1.455-7.449-3.51-10.677-6.108-3.226-2.599-7.947-2.088-10.545 1.139-2.597 3.224-2.087 7.946 1.139 10.544z"/><path d="m237.68 415.375c.844.306 1.706.451 2.555.451 3.067 0 5.946-1.896 7.052-4.946 1.945-5.364 3.021-10.994 3.195-16.732.127-4.141-3.127-7.6-7.267-7.726-.078-.003-.156-.004-.233-.004-4.036 0-7.368 3.209-7.492 7.271-.127 4.147-.902 8.211-2.305 12.08-1.412 3.893.601 8.195 4.495 9.606z"/><path d="m150.008 323.673c4.143 0 7.5-3.357 7.5-7.5v-14.733c0-4.143-3.357-7.5-7.5-7.5s-7.5 3.357-7.5 7.5v14.733c0 4.142 3.358 7.5 7.5 7.5z"/><path d="m142.508 360.372c0 4.143 3.357 7.5 7.5 7.5s7.5-3.357 7.5-7.5v-14.733c0-4.143-3.357-7.5-7.5-7.5s-7.5 3.357-7.5 7.5z"/><path d="m164.953 279.054c2.593-3.045 5.694-5.534 9.218-7.397 3.662-1.937 5.061-6.475 3.124-10.136s-6.474-5.061-10.136-3.124c-5.211 2.756-9.795 6.434-13.626 10.931-2.686 3.154-2.307 7.888.847 10.573 1.412 1.202 3.14 1.79 4.859 1.79 2.123 0 4.231-.895 5.714-2.637z"/><path d="m142.508 392.47c0 4.703.606 9.375 1.804 13.886.892 3.359 3.926 5.578 7.244 5.578.637 0 1.284-.082 1.929-.253 4.003-1.063 6.388-5.169 5.325-9.173-.863-3.255-1.302-6.633-1.302-10.038v-2.633c0-4.143-3.357-7.5-7.5-7.5s-7.5 3.357-7.5 7.5z"/><path d="m258.328 253.054h-14.732c-4.143 0-7.5 3.357-7.5 7.5s3.357 7.5 7.5 7.5h14.732c4.143 0 7.5-3.357 7.5-7.5s-3.358-7.5-7.5-7.5z"/><path d="m254.246 368.798c1.897-3.507 4.415-6.586 7.483-9.151 3.178-2.656 3.601-7.387.943-10.564-2.656-3.177-7.386-3.603-10.564-.943-4.531 3.788-8.251 8.338-11.056 13.522-1.971 3.644-.615 8.194 3.028 10.165 1.135.613 2.356.904 3.562.904 2.667-.001 5.247-1.425 6.604-3.933z"/><path d="m284.508 352.387h7.5c4.143 0 7.5-3.357 7.5-7.5s-3.357-7.5-7.5-7.5h-7.5c-4.143 0-7.5 3.357-7.5 7.5s3.358 7.5 7.5 7.5z"/></g></defs><g fi:class="KUsePattern"><pattern id="pattern_L1_1477" width="350" height="350" patternUnits="userSpaceOnUse"><use xlink:href="#L1_1477" x="-350" y="-350"/><use xlink:href="#L1_1477" x="0" y="-350"/><use xlink:href="#L1_1477" x="350" y="-350"/><use xlink:href="#L1_1477" x="-350" y="0"/><use xlink:href="#L1_1477" x="0" y="0"/><use xlink:href="#L1_1477" x="350" y="0"/><use xlink:href="#L1_1477" x="-350" y="350"/><use xlink:href="#L1_1477" x="0" y="350"/><use xlink:href="#L1_1477" x="350" y="350"/></pattern><rect x="0" y="0" width="100%" height="100%" fill="url(#pattern_L1_1477)"/></g><g fi:class="KUsePattern"><pattern id="pattern_L1_1478" width="350" height="350" patternUnits="userSpaceOnUse"><use xlink:href="#L1_1478" x="-350" y="-350"/><use xlink:href="#L1_1478" x="0" y="-350"/><use xlink:href="#L1_1478" x="350" y="-350"/><use xlink:href="#L1_1478" x="-350" y="0"/><use xlink:href="#L1_1478" x="0" y="0"/><use xlink:href="#L1_1478" x="350" y="0"/><use xlink:href="#L1_1478" x="-350" y="350"/><use xlink:href="#L1_1478" x="0" y="350"/><use xlink:href="#L1_1478" x="350" y="350"/></pattern><rect x="0" y="0" width="100%" height="100%" fill="url(#pattern_L1_1478)"/></g><g fi:class="KUsePattern"><pattern id="pattern_L1_1479" width="350" height="350" patternUnits="userSpaceOnUse"><use xlink:href="#L1_1479" x="-350" y="-350"/><use xlink:href="#L1_1479" x="0" y="-350"/><use xlink:href="#L1_1479" x="350" y="-350"/><use xlink:href="#L1_1479" x="-350" y="0"/><use xlink:href="#L1_1479" x="0" y="0"/><use xlink:href="#L1_1479" x="350" y="0"/><use xlink:href="#L1_1479" x="-350" y="350"/><use xlink:href="#L1_1479" x="0" y="350"/><use xlink:href="#L1_1479" x="350" y="350"/></pattern><rect x="0" y="0" width="100%" height="100%" fill="url(#pattern_L1_1479)"/></g><g fi:class="KUsePattern"><pattern id="pattern_L1_1480" width="350" height="350" patternUnits="userSpaceOnUse"><use xlink:href="#L1_1480" x="-350" y="-350"/><use xlink:href="#L1_1480" x="0" y="-350"/><use xlink:href="#L1_1480" x="350" y="-350"/><use xlink:href="#L1_1480" x="-350" y="0"/><use xlink:href="#L1_1480" x="0" y="0"/><use xlink:href="#L1_1480" x="350" y="0"/><use xlink:href="#L1_1480" x="-350" y="350"/><use xlink:href="#L1_1480" x="0" y="350"/><use xlink:href="#L1_1480" x="350" y="350"/></pattern><rect x="0" y="0" width="100%" height="100%" fill="url(#pattern_L1_1480)"/></g><g fi:class="KUsePattern"><pattern id="pattern_L1_1481" width="350" height="350" patternUnits="userSpaceOnUse"><use xlink:href="#L1_1481" x="-350" y="-350"/><use xlink:href="#L1_1481" x="0" y="-350"/><use xlink:href="#L1_1481" x="350" y="-350"/><use xlink:href="#L1_1481" x="-350" y="0"/><use xlink:href="#L1_1481" x="0" y="0"/><use xlink:href="#L1_1481" x="350" y="0"/><use xlink:href="#L1_1481" x="-350" y="350"/><use xlink:href="#L1_1481" x="0" y="350"/><use xlink:href="#L1_1481" x="350" y="350"/></pattern><rect x="0" y="0" width="100%" height="100%" fill="url(#pattern_L1_1481)"/></g><g fi:class="KUsePattern"><pattern id="pattern_L1_1482" width="350" height="350" patternUnits="userSpaceOnUse"><use xlink:href="#L1_1482" x="-350" y="-350"/><use xlink:href="#L1_1482" x="0" y="-350"/><use xlink:href="#L1_1482" x="350" y="-350"/><use xlink:href="#L1_1482" x="-350" y="0"/><use xlink:href="#L1_1482" x="0" y="0"/><use xlink:href="#L1_1482" x="350" y="0"/><use xlink:href="#L1_1482" x="-350" y="350"/><use xlink:href="#L1_1482" x="0" y="350"/><use xlink:href="#L1_1482" x="350" y="350"/></pattern><rect x="0" y="0" width="100%" height="100%" fill="url(#pattern_L1_1482)"/></g><g fi:class="KUsePattern"><pattern id="pattern_L1_1483" width="350" height="350" patternUnits="userSpaceOnUse"><use xlink:href="#L1_1483" x="-350" y="-350"/><use xlink:href="#L1_1483" x="0" y="-350"/><use xlink:href="#L1_1483" x="350" y="-350"/><use xlink:href="#L1_1483" x="-350" y="0"/><use xlink:href="#L1_1483" x="0" y="0"/><use xlink:href="#L1_1483" x="350" y="0"/><use xlink:href="#L1_1483" x="-350" y="350"/><use xlink:href="#L1_1483" x="0" y="350"/><use xlink:href="#L1_1483" x="350" y="350"/></pattern><rect x="0" y="0" width="100%" height="100%" fill="url(#pattern_L1_1483)"/></g><g fi:class="KUsePattern"><pattern id="pattern_L1_1484" width="350" height="350" patternUnits="userSpaceOnUse"><use xlink:href="#L1_1484" x="-350" y="-350"/><use xlink:href="#L1_1484" x="0" y="-350"/><use xlink:href="#L1_1484" x="350" y="-350"/><use xlink:href="#L1_1484" x="-350" y="0"/><use xlink:href="#L1_1484" x="0" y="0"/><use xlink:href="#L1_1484" x="350" y="0"/><use xlink:href="#L1_1484" x="-350" y="350"/><use xlink:href="#L1_1484" x="0" y="350"/><use xlink:href="#L1_1484" x="350" y="350"/></pattern><rect x="0" y="0" width="100%" height="100%" fill="url(#pattern_L1_1484)"/></g><g fi:class="KUsePattern"><pattern id="pattern_L1_1485" width="350" height="350" patternUnits="userSpaceOnUse"><use xlink:href="#L1_1485" x="-350" y="-350"/><use xlink:href="#L1_1485" x="0" y="-350"/><use xlink:href="#L1_1485" x="350" y="-350"/><use xlink:href="#L1_1485" x="-350" y="0"/><use xlink:href="#L1_1485" x="0" y="0"/><use xlink:href="#L1_1485" x="350" y="0"/><use xlink:href="#L1_1485" x="-350" y="350"/><use xlink:href="#L1_1485" x="0" y="350"/><use xlink:href="#L1_1485" x="350" y="350"/></pattern><rect x="0" y="0" width="100%" height="100%" fill="url(#pattern_L1_1485)"/></g><g fi:class="KUsePattern"><pattern id="pattern_L1_1486" width="350" height="350" patternUnits="userSpaceOnUse"><use xlink:href="#L1_1486" x="-350" y="-350"/><use xlink:href="#L1_1486" x="0" y="-350"/><use xlink:href="#L1_1486" x="350" y="-350"/><use xlink:href="#L1_1486" x="-350" y="0"/><use xlink:href="#L1_1486" x="0" y="0"/><use xlink:href="#L1_1486" x="350" y="0"/><use xlink:href="#L1_1486" x="-350" y="350"/><use xlink:href="#L1_1486" x="0" y="350"/><use xlink:href="#L1_1486" x="350" y="350"/></pattern><rect x="0" y="0" width="100%" height="100%" fill="url(#pattern_L1_1486)"/></g></svg>