<svg xmlns="http://www.w3.org/2000/svg" xmlns:xlink="http://www.w3.org/1999/xlink" xmlns:fi="http://pattern.flaticon.com/" x="0" y="0" width="2160" height="1080" viewBox="0 0 2160 1080"><rect x="0px" y="0px" width="100%" height="100%" opacity="1" fill="#ffffff"/><defs><g transform="matrix(0.17578125 0 0 0.17578125 305 305)" id="L1_945"><rect x="10px" y="216px" width="492px" height="160px" fill="#f25a78"/><g><path d="M10,376v60c0,11.05,8.95,20,20,20h452c11.05,0,20-8.95,20-20v-60H10z" fill="#cceeff"/><path d="M482,136H366l-34.47-68.94C328.14,60.28,321.21,56,313.64,56H198.36c-7.57,0-14.5,4.28-17.89,11.06   L146,136h-36v-20c0-11.05-8.95-20-20-20H70c-11.05,0-20,8.95-20,20v20H30c-11.05,0-20,8.95-20,20v60h492v-60   C502,144.95,493.05,136,482,136z" fill="#cceeff"/></g><path d="M376,296c0,66.135-53.618,120-120,120c-66.394,0-120-53.878-120-120c0-66.135,53.618-120,120-120  C322.394,176,376,229.878,376,296z" fill="#57555c"/><path d="M256,216c44.11,0,80,35.89,80,80s-35.89,80-80,80s-80-35.89-80-80S211.89,216,256,216z" fill="#ffffff"/><path d="M402,186c5.52,0,10-4.48,10-10s-4.48-10-10-10s-10,4.48-10,10S396.48,186,402,186z"/><path d="M482,126H372.18l-31.706-63.413C335.357,52.356,325.075,46,313.64,46H198.36c-11.437,0-21.719,6.356-26.834,16.588  L139.82,126H120v-10c0-16.542-13.458-30-30-30H70c-16.542,0-30,13.458-30,30v10H30c-16.542,0-30,13.458-30,30  c0,27.175,0,269.429,0,280c0,16.542,13.458,30,30,30h452c16.542,0,30-13.458,30-30c0-27.175,0-269.429,0-280  C512,139.458,498.542,126,482,126z M20,225.9h126.451C133.161,246.661,126,270.992,126,296c0,25.01,7.162,49.243,20.45,70H20V225.9z   M146,296c0-61.205,49.79-110,110-110c60.133,0,110,48.719,110,110c0,61.212-49.797,110-110,110C195.743,406,146,357.158,146,296z   M386,296c0-25.009-7.161-49.239-20.451-70H492v140H365.549C378.839,345.239,386,321.009,386,296z M189.415,71.532  C191.121,68.12,194.548,66,198.36,66h115.28c3.812,0,7.24,2.12,8.946,5.532L349.82,126H162.18L189.415,71.532z M60,116  c0-5.514,4.486-10,10-10h20c5.514,0,10,4.486,10,10v10H60V116z M30,146c9.081,0,437.942,0,452,0c5.514,0,10,4.486,10,10v50H349.774  c-24.434-25.472-58.348-40-93.774-40c-35.43,0-69.347,14.532-93.775,40H20v-50C20,150.486,24.486,146,30,146z M482,446H30  c-5.514,0-10-4.486-10-10v-50h142.226c24.435,25.472,58.349,40,93.774,40c35.431,0,69.348-14.532,93.775-40H492v50  C492,441.514,487.514,446,482,446z"/><path d="M286,86h-60c-5.523,0-10,4.477-10,10s4.477,10,10,10h60c5.522,0,10-4.477,10-10S291.522,86,286,86z"/><path d="M256,386c49.626,0,90-40.374,90-90s-40.374-90-90-90s-90,40.374-90,90S206.374,386,256,386z M256,226  c38.598,0,70,31.402,70,70s-31.402,70-70,70s-70-31.402-70-70S217.402,226,256,226z"/><path d="M216,306c5.523,0,10-4.477,10-10c0-16.542,13.458-30,30-30c5.522,0,10-4.477,10-10s-4.478-10-10-10c-27.57,0-50,22.43-50,50  C206,301.523,210.477,306,216,306z"/><path d="M442,186h20c5.522,0,10-4.477,10-10s-4.478-10-10-10h-20c-5.522,0-10,4.477-10,10S436.478,186,442,186z"/></g><g transform="matrix(0.1666666716337204 0 0 0.1666666716337204 150 325)" id="L1_946"><path d="M99.41,95.701l-3.415-12.779c-7.389,1.975-14.738,4.424-21.841,7.277l4.929,12.274     C85.699,99.817,92.535,97.54,99.41,95.701z"/><path d="M59.714,111.641l-6.364-11.595c-6.703,3.681-13.257,7.81-19.482,12.274l7.711,10.746     C47.376,118.911,53.476,115.067,59.714,111.641z"/><path d="M0,143.421l10.054,8.593c4.629-5.416,9.64-10.605,14.888-15.422l-8.943-9.743C10.358,132.025,4.975,137.599,0,143.421z"/><path d="M285.464,138.098l-9.739,8.947c4.823,5.251,9.373,10.848,13.528,16.632L300,155.966     C295.534,149.748,290.647,143.736,285.464,138.098z"/><path d="M243.18,119.253c5.932,3.935,11.694,8.28,17.115,12.909l8.588-10.058c-5.826-4.977-12.016-9.646-18.398-13.874     L243.18,119.253z"/><path d="M230.536,96.687c-6.834-3.415-13.958-6.452-21.186-9.029l-4.44,12.459c6.726,2.396,13.356,5.222,19.714,8.401     L230.536,96.687z"/><path d="M110.915,105.603l8.989,0.004l7.493-11.363l14.428,0.099l-9.084,31.32v0.741c0,3.955,3.218,7.175,7.173,7.175h13.032     l20.681-38.354l15.984,0.529c8.273,0,15.005-6.492,15.005-14.467c0.004-3.919-1.594-7.59-4.497-10.334     c-2.817-2.663-6.545-4.133-10.665-4.133c-0.007,0-0.011,0-0.013,0l-15.951,0.533l-20.54-38.091l-13.054-0.004     c-3.946,0.011-7.155,3.232-7.155,7.177v0.738l9.011,31.07l-14.489,0.126L119.9,57.23l-8.983,0.002c-3.69,0-6.69,3-6.69,6.688     v34.996C104.227,102.605,107.224,105.603,110.915,105.603z M114.629,68.136h0.004l7.067,10.691l33.877-0.293l-11.275-38.867     h2.434l20.657,38.305l22.224-0.743c1.281,0,2.471,0.459,3.353,1.29c0.8,0.756,1.239,1.737,1.239,2.766     c0,2.242-2.063,4.063-4.424,4.065l-22.255-0.736l-20.796,38.559H144.3l11.35-39.138l-33.83-0.236l-7.191,10.896V68.136z"/><path d="M171.305,156.619c-8.657-1.973-17.507-2.974-26.309-2.974c-55.362,0-102.633,37.756-114.949,91.814     c-1.913,8.403-2.87,16.866-2.943,25.282h13.228c0.057-5.262,0.5-10.546,1.36-15.818c7.438,1.907,15.1,4.966,17.562,6.975     c-0.115,0.853-0.247,1.717-0.381,2.588c-0.298,1.929-0.619,4.063-0.752,6.256h13.27c0.139-1.499,0.375-3.079,0.553-4.241     c0.245-1.594,0.487-3.181,0.639-4.715c0.822-8.306-8.597-14.948-27.96-19.76c10.651-36.33,39.447-63.355,75.16-72.107     c-1.968,3.805-3.553,8.513-4.215,14.469c-0.322,2.919-0.741,5.555-1.109,7.876c-1.481,9.36-3.013,19.039,9.644,24.673     c7.098,3.17,12.064,3.695,16.052,4.111c1.94,0.203,3.65,0.384,5.467,0.849c0.641,2.149,0.317,7.4,0.187,9.499     c-0.165,2.665-0.333,5.385,0.481,7.607c0.809,4.541,4.166,18.924,15.305,31.734H181.5     c-19.134-12.492-22.182-33.848-22.308-34.787l-0.271-2.178c0.026-0.516,0.06-1.08,0.09-1.563     c0.425-6.884,1.219-19.705-8.595-22.703c-3.39-1.034-6.304-1.338-8.875-1.609c-3.686-0.388-6.867-0.723-12.051-3.035     c-3.393-1.512-3.393-1.512-1.966-10.528c0.39-2.467,0.833-5.266,1.188-8.493c1.01-9.106,4.847-14.877,8.313-18.658     c2.634-0.196,5.29-0.315,7.971-0.315c7.814,0,15.677,0.888,23.373,2.641c27.292,6.218,50.531,22.689,65.43,46.378     c10.098,16.057,15.532,34.128,16.059,52.605c-1.1,0.721-2.469,1.481-3.941,2.246h17.174c-0.123-21.726-6.241-43.04-18.096-61.89     C228.213,182.172,202.043,163.622,171.305,156.619z"/></g><g transform="matrix(0.059448789805173874 0 0 0.059448789805173874 335 160)" id="L1_947"><path d="M90.783,334.684l79.557,79.163c4.332,4.332,12.209,66.954,7.877,71.286l-15.754,15.754  c-4.332,4.332-11.422,4.332-15.754,0l-8.271-8.271l-63.015-63.015c-25.6-25.6-51.594-51.2-63.803-63.803l-7.877-7.877  c-4.332-4.332-4.332-11.422,0-15.754l15.754-15.754C23.829,322.081,86.45,330.352,90.783,334.684z" fill="#d8dbdb"/><path d="M120.321,47.571c-11.815,0-21.662,9.846-21.662,21.662s9.846,21.662,21.662,21.662  s21.662-9.846,21.662-21.662S132.136,47.571,120.321,47.571z M187.275,71.201c-11.815,0-21.662,9.846-21.662,21.662  s9.846,21.662,21.662,21.662s21.662-9.846,21.662-21.662S199.09,71.201,187.275,71.201z M433.429,313.417  c0-11.815-9.846-21.662-21.662-21.662s-21.662,9.846-21.662,21.662c0,11.815,9.846,21.662,21.662,21.662  S433.429,325.626,433.429,313.417z M435.398,358.709c-11.815,0-21.662,9.846-21.662,21.662c0,11.815,9.846,21.662,21.662,21.662  c11.815,0,21.662-9.846,21.662-21.662C457.059,368.555,447.213,358.709,435.398,358.709z" fill="#676767"/><path d="M295.189,131.854l77.982,77.982c8.665,8.665,94.523,248.517,85.858,257.182l-31.114,31.114  c-8.665,8.665-22.449,8.665-31.114,0L224.69,279.546L6.499,108.223c-8.665-8.665-8.665-22.449,0-31.114l31.114-31.114  C46.278,37.331,286.524,123.189,295.189,131.854z" fill="#d8dbdb"/><path d="M495.263,9.761c21.662,21.662,2.363,75.618-23.237,101.612l-281.6,281.206  c-25.994,25.994-118.942,84.283-140.603,62.622s36.628-114.609,62.622-140.603l281.206-281.6  C419.644,7.004,473.601-11.9,495.263,9.761z" fill="#e4e7e7"/><path d="M131.743,333.503L412.949,52.297c22.055-22.055,64.197-38.991,89.403-30.72  c-1.575-4.726-3.938-8.665-7.089-12.209c-21.662-21.662-75.619-2.364-101.613,23.63L112.444,314.204  C86.45,340.198,28.555,433.145,49.822,454.807c3.151,3.151,8.271,4.726,14.572,4.726  C64.789,425.663,109.687,355.558,131.743,333.503z" fill="#dde0e0"/><path d="M138.044,211.411l44.505,34.658l113.822-113.822l-1.182-1.182  c-2.363-2.363-24.418-11.422-54.351-22.843C240.838,108.223,138.044,211.411,138.044,211.411z" fill="#c7caca"/><path d="M259.349,323.657l137.058,174.474c7.877,7.877,20.48,8.271,29.145,1.575L274.315,308.691  L259.349,323.657z M196.333,230.709L4.136,80.26c-5.908,8.665-5.12,20.48,2.363,27.963l174.868,137.058L196.333,230.709z" fill="#3db39e"/><path d="M181.367,245.281l14.966-14.572l-43.323-33.871l-14.966,14.572L181.367,245.281z" fill="#38a592"/></g><g transform="matrix(0.1458333283662796 0 0 0.1458333283662796 140 140)" id="L1_948"><path d="M339.904,161.776l-5.136-16.904c-6.524-19.202-27.379-29.479-46.581-22.955c-10.802,3.67-19.285,12.153-22.955,22.955    l-5.136,16.904c-4.322,14.256-5.229,29.329-2.648,44c2.354,12.352,10.196,22.964,21.312,28.84L273.008,363.2    c-0.77,7.177,1.558,14.342,6.4,19.696c10.413,11.39,28.089,12.182,39.479,1.769c0.616-0.563,1.206-1.153,1.769-1.769    c4.734-5.202,7.058-12.157,6.4-19.16L321.272,234.6c11.101-5.879,18.93-16.484,21.28-28.824    C345.133,191.105,344.226,176.032,339.904,161.776z M326.792,202.992c-1.732,8.874-8.056,16.155-16.6,19.112    c-3.243,1.219-5.332,4.387-5.176,7.848L311.096,365c0.28,2.649-0.594,5.29-2.4,7.248c-4.817,4.769-12.575,4.769-17.392,0    c-1.896-2.116-2.757-4.964-2.352-7.776l6.032-134.52c0.156-3.461-1.933-6.629-5.176-7.848c-8.544-2.957-14.868-10.238-16.6-19.112    c-2.14-12.18-1.386-24.693,2.2-36.528l5.136-16.912c3.974-10.745,15.906-16.234,26.652-12.26c5.681,2.101,10.159,6.58,12.26,12.26    l5.136,16.912C328.174,178.3,328.928,190.812,326.792,202.992z"/><path d="M216,120c-4.418,0-8,3.582-8,8v68.688l-21.656,21.656c-1.602,1.596-2.454,3.797-2.344,6.056l7,140    c0.167,3.019-0.929,5.972-3.024,8.152c-4.379,4.418-11.511,4.45-15.93,0.07c-0.024-0.023-0.047-0.047-0.07-0.07    c-2.096-2.18-3.191-5.133-3.024-8.152l7.048-140c0.112-2.258-0.737-4.458-2.336-6.056L152,196.688V128c0-4.418-3.582-8-8-8    s-8,3.582-8,8v72c0,2.122,0.844,4.156,2.344,5.656l21.488,21.496l-6.824,136.472c-0.726,14.907,10.77,27.581,25.677,28.307    c14.907,0.726,27.581-10.77,28.307-25.677c0.043-0.876,0.043-1.753,0-2.629l-6.824-136.472l21.488-21.496    c1.5-1.5,2.344-3.534,2.344-5.656v-72C224,123.582,220.418,120,216,120z"/><path d="M168,120c-4.418,0-8,3.582-8,8v64c0,4.418,3.582,8,8,8s8-3.582,8-8v-64C176,123.582,172.418,120,168,120z"/><path d="M192,120c-4.418,0-8,3.582-8,8v64c0,4.418,3.582,8,8,8s8-3.582,8-8v-64C200,123.582,196.418,120,192,120z"/><path d="M240,0C107.452,0,0,107.452,0,240s107.452,240,240,240s240-107.452,240-240C479.85,107.514,372.486,0.15,240,0z M240,464    C116.288,464,16,363.712,16,240S116.288,16,240,16s224,100.288,224,224C463.859,363.653,363.653,463.859,240,464z"/><path d="M265.969,390.172c-0.429-4.397-4.342-7.614-8.74-7.185c-0.103,0.01-0.206,0.022-0.309,0.036l0.032-0.008    c-11.263,1.308-22.641,1.308-33.904,0c-4.39-0.515-8.365,2.626-8.88,7.016c-0.515,4.39,2.626,8.365,7.016,8.88    c12.491,1.459,25.109,1.459,37.6,0C263.181,398.483,266.398,394.57,265.969,390.172z"/><path d="M362.4,136.912c-2.839-3.385-7.885-3.828-11.27-0.988c-0.011,0.009-0.022,0.019-0.034,0.028    c-3.377,2.848-3.807,7.894-0.96,11.272c48.235,57.26,44.545,141.929-8.488,194.776c-3.13,3.119-3.139,8.186-0.02,11.316    c3.119,3.13,8.186,3.139,11.316,0.02C411.881,294.623,415.991,200.541,362.4,136.912z"/><path d="M277.736,84.472c-31.265-7.493-64.055-5.479-94.168,5.784c-4.136,1.555-6.227,6.169-4.672,10.304     c1.172,3.117,4.152,5.18,7.481,5.183c0.957-0.005,1.905-0.18,2.799-0.519c27.118-10.141,56.646-11.952,84.8-5.2     c4.295,1.038,8.618-1.601,9.656-5.896C284.67,89.833,282.031,85.51,277.736,84.472z"/><path d="M137.992,341.6C111.023,314.677,95.908,278.108,96,240c-0.079-30.446,9.565-60.122,27.528-84.704    c2.655-3.532,1.944-8.547-1.588-11.202s-8.547-1.944-11.202,1.588c-0.047,0.063-0.093,0.126-0.138,0.19    c-46.253,63.588-39.447,151.359,16.056,207.056c3.128,3.13,8.202,3.132,11.332,0.004C141.118,349.804,141.12,344.73,137.992,341.6    z"/></g><path d="M165,0C74.019,0,0,74.019,0,165s74.019,165,165,165c90.982,0,165-74.019,165-165S255.982,0,165,0z" transform="matrix(0.03030303120613098 0 0 0.03030303120613098 257.5 257.5)" id="L1_949" fill="#5e92f3"/></defs><g fi:class="KUsePattern"><pattern id="pattern_L1_945" width="350" height="350" patternUnits="userSpaceOnUse"><use xlink:href="#L1_945" x="-350" y="-350"/><use xlink:href="#L1_945" x="0" y="-350"/><use xlink:href="#L1_945" x="350" y="-350"/><use xlink:href="#L1_945" x="-350" y="0"/><use xlink:href="#L1_945" x="0" y="0"/><use xlink:href="#L1_945" x="350" y="0"/><use xlink:href="#L1_945" x="-350" y="350"/><use xlink:href="#L1_945" x="0" y="350"/><use xlink:href="#L1_945" x="350" y="350"/></pattern><rect x="0" y="0" width="100%" height="100%" fill="url(#pattern_L1_945)"/></g><g fi:class="KUsePattern"><pattern id="pattern_L1_946" width="350" height="350" patternUnits="userSpaceOnUse"><use xlink:href="#L1_946" x="-350" y="-350"/><use xlink:href="#L1_946" x="0" y="-350"/><use xlink:href="#L1_946" x="350" y="-350"/><use xlink:href="#L1_946" x="-350" y="0"/><use xlink:href="#L1_946" x="0" y="0"/><use xlink:href="#L1_946" x="350" y="0"/><use xlink:href="#L1_946" x="-350" y="350"/><use xlink:href="#L1_946" x="0" y="350"/><use xlink:href="#L1_946" x="350" y="350"/></pattern><rect x="0" y="0" width="100%" height="100%" fill="url(#pattern_L1_946)"/></g><g fi:class="KUsePattern"><pattern id="pattern_L1_947" width="350" height="350" patternUnits="userSpaceOnUse"><use xlink:href="#L1_947" x="-350" y="-350"/><use xlink:href="#L1_947" x="0" y="-350"/><use xlink:href="#L1_947" x="350" y="-350"/><use xlink:href="#L1_947" x="-350" y="0"/><use xlink:href="#L1_947" x="0" y="0"/><use xlink:href="#L1_947" x="350" y="0"/><use xlink:href="#L1_947" x="-350" y="350"/><use xlink:href="#L1_947" x="0" y="350"/><use xlink:href="#L1_947" x="350" y="350"/></pattern><rect x="0" y="0" width="100%" height="100%" fill="url(#pattern_L1_947)"/></g><g fi:class="KUsePattern"><pattern id="pattern_L1_948" width="350" height="350" patternUnits="userSpaceOnUse"><use xlink:href="#L1_948" x="-350" y="-350"/><use xlink:href="#L1_948" x="0" y="-350"/><use xlink:href="#L1_948" x="350" y="-350"/><use xlink:href="#L1_948" x="-350" y="0"/><use xlink:href="#L1_948" x="0" y="0"/><use xlink:href="#L1_948" x="350" y="0"/><use xlink:href="#L1_948" x="-350" y="350"/><use xlink:href="#L1_948" x="0" y="350"/><use xlink:href="#L1_948" x="350" y="350"/></pattern><rect x="0" y="0" width="100%" height="100%" fill="url(#pattern_L1_948)"/></g><g fi:class="KUsePattern"><pattern id="pattern_L1_949" width="350" height="350" patternUnits="userSpaceOnUse"><use xlink:href="#L1_949" x="-350" y="-350"/><use xlink:href="#L1_949" x="0" y="-350"/><use xlink:href="#L1_949" x="350" y="-350"/><use xlink:href="#L1_949" x="-350" y="0"/><use xlink:href="#L1_949" x="0" y="0"/><use xlink:href="#L1_949" x="350" y="0"/><use xlink:href="#L1_949" x="-350" y="350"/><use xlink:href="#L1_949" x="0" y="350"/><use xlink:href="#L1_949" x="350" y="350"/></pattern><rect x="0" y="0" width="100%" height="100%" fill="url(#pattern_L1_949)"/></g></svg>