<svg xmlns="http://www.w3.org/2000/svg" xmlns:xlink="http://www.w3.org/1999/xlink" xmlns:fi="http://pattern.flaticon.com/" x="0" y="0" width="2160" height="1080" viewBox="0 0 2160 1080"><rect x="0px" y="0px" width="100%" height="100%" opacity="1" fill="#ffffff"/><defs><g transform="matrix(0.18367347121238708 0 0 0.18367347121238708 305 305)" id="L1_1939"><path d="M490,245c0,84.68-42.96,159.33-108.28,203.34c-15.27,10.28-31.76,18.89-49.2,25.57   C305.34,484.3,275.84,490,245,490c-35.84,0-69.89-7.7-100.57-21.52c-16.6-7.49-32.23-16.77-46.62-27.6C38.41,396.17,0,325.07,0,245   c0-25.17,3.79-49.45,10.84-72.3C41.69,72.68,134.86,0,245,0s203.31,72.68,234.16,172.7C486.21,195.55,490,219.83,490,245z" fill="#55d485"/><ellipse cx="367px" cy="269px" rx="63px" ry="26px" fill="#10995b"/><path d="M457.58,304.57c-0.929,4.936-3.128,9.525-6.64,13.14c-3.421,3.521-7.694,6.109-12.133,8.141   c-9.974,4.566-20.923,6.852-31.696,8.611c-11.24,1.835-22.595,2.954-33.946,3.831c-11.43,0.883-22.872,1.603-34.322,2.178   c-22.853,1.148-45.72,1.941-68.568,3.221c-22.573,1.265-45.196,2.823-67.538,6.413c-10.727,1.724-21.521,3.855-31.71,7.717   c-4.58,1.736-9.749,3.842-13.182,7.469c-1.259,1.33-1.673,2.356-1.224,4.142c0.542,2.156,1.678,4.169,2.864,6.029   c2.875,4.507,6.557,8.494,10.356,12.232c1.078,1.061,2.176,2.098,3.289,3.122c0.617,0.568,0.949,0.711,1.732,1.045   c4.621,1.973,9.778,2.723,14.729,3.356c5.453,0.697,10.94,1.105,16.428,1.415c9.709,0.547,19.441,0.727,29.16,1.007   c21.86,0.631,43.775,1.413,65.405,4.859c20.765,3.308,41.832,9.414,59.024,21.931c8.46,6.159,15.839,13.807,21.379,22.704   c0.155,0.25,0.308,0.501,0.46,0.752c0.284,0.471,0.278,0.266-0.03,0.658c-0.315,0.401-1.074,0.717-1.512,1.007   c-1.163,0.768-2.333,1.526-3.508,2.274c-2.201,1.4-4.424,2.765-6.668,4.095c-4.5,2.666-9.085,5.187-13.746,7.56   c-4.79,2.438-9.659,4.718-14.599,6.836c-2.367,1.014-4.749,1.991-7.147,2.931c-0.456,0.179-1.487,0.761-1.785,0.504   c-0.357-0.308-0.602-1.325-0.833-1.76c-0.588-1.11-1.26-2.181-2.009-3.19c-5.946-8.013-15.834-12.829-24.903-16.352   c-10.201-3.963-20.859-6.607-31.579-8.723c-11.082-2.187-22.256-3.816-33.458-5.241c-11.014-1.401-22.044-2.677-33.049-4.151   c-10.784-1.444-21.628-3.048-32.108-6.046c-8.706-2.49-17.35-6.12-23.905-12.542c-1.616-1.583-3.096-3.339-4.57-5.052   c-3.508-4.074-6.829-8.325-9.769-12.83c-5.361-8.214-9.667-17.615-9.86-27.582c-0.208-10.758,4.874-20.559,13.182-27.246   c8.257-6.646,18.678-10.252,28.862-12.702c10.677-2.569,21.63-4.03,32.552-5.068c22.483-2.136,45.15-2.484,67.719-2.699   c22.883-0.219,45.766-0.114,68.648-0.485c22.6-0.366,45.353-0.941,67.757-4.175c5.495-0.793,10.976-1.768,16.357-3.144   c5.014-1.282,10.132-2.84,14.582-5.548c1.909-1.162,3.857-2.588,4.935-4.599c1.01-1.885,1.497-4.357,1.199-6.475   c-0.658-4.686-5.23-7.887-9.035-10.038c-4.513-2.552-9.459-4.287-14.435-5.685c-0.427-0.12-5.903-1.797-6.084-1.396   c0-0.787,0.345-1.699,0.507-2.462c0.378-1.778,0.761-3.555,1.145-5.331c0.377-1.74,0.755-3.479,1.141-5.218   c0.028-0.128,0.446-2.419,0.557-2.419c0.015,0.326,4.416,1.143,4.822,1.246c4.745,1.198,9.432,2.707,13.93,4.639   c8.251,3.544,16.441,8.776,20.666,16.989C457.966,293.413,458.674,299.123,457.58,304.57z" fill="#10995b"/><path d="M479.16,172.7H10.84C41.69,72.68,134.86,0,245,0S448.31,72.68,479.16,172.7z" fill="#bce6f5"/><g><path d="M235.31,311.07l-90.88,157.41c-16.6-7.49-32.23-16.77-46.62-27.6L22.87,311.07    C-6.44,260.3,5.19,201.66,40.82,164.48c21.76-22.7,52.47-37.39,88.27-37.39C223.51,127.09,282.52,229.3,235.31,311.07z" fill="#f75454"/><path d="M192.986,249.739c0,30.093-20.804,55.322-48.812,62.102c-4.837,1.184-9.894,1.801-15.091,1.801    c-35.277,0-63.891-28.613-63.891-63.903c0-35.278,28.613-63.891,63.891-63.891c5.198,0,10.254,0.618,15.091,1.801    C172.183,194.43,192.986,219.659,192.986,249.739z" fill="#bce6f5"/><path d="M192.986,249.739c0,30.093-20.804,55.322-48.812,62.102c-28.008-6.78-48.799-32.01-48.799-62.102    c0-30.08,20.791-55.309,48.799-62.089C172.183,194.43,192.986,219.659,192.986,249.739z" fill="#ffffff"/></g><g><path d="M367.161,269.136l77.693-134.568c34.53-59.808-8.632-134.567-77.693-134.567h0    c-69.06,0-112.223,74.76-77.693,134.567L367.161,269.136z" fill="#f75454"/><path d="M413.897,89.709c0,22.011-15.216,40.464-35.702,45.423c-3.538,0.866-7.236,1.317-11.038,1.317    c-25.803,0-46.731-20.928-46.731-46.741c0-25.803,20.928-46.731,46.731-46.731c3.802,0,7.5,0.452,11.038,1.317    C398.681,49.254,413.897,67.708,413.897,89.709z" fill="#bce6f5"/><path d="M413.897,89.709c0,22.011-15.216,40.464-35.702,45.423c-20.486-4.959-35.693-23.413-35.693-45.423    c0-22.001,15.207-40.455,35.693-45.414C398.681,49.254,413.897,67.708,413.897,89.709z" fill="#ffffff"/></g></g><g transform="matrix(0.09765605628490448 0 0 0.09765605628490448 150 325)" id="L1_1940"><path d="M496.236,176.587C454.759,44.097,313.262-29.944,180.746,11.516C48.247,52.993-25.803,194.524,15.666,327.014l16.282-5.1    C-6.715,198.405,62.32,66.46,185.846,27.789c59.84-18.721,123.39-13.024,178.923,16.035    c55.558,29.076,96.464,78.032,115.194,137.864c18.721,59.831,13.032,123.373-16.035,178.923    c-29.059,55.558-78.015,96.464-137.855,115.194c-100.157,31.344-209.943-8.239-267.045-96.276l-14.312,9.28    c47.2,72.787,127.987,114.699,211.734,114.69c24.905,0,50.091-3.702,74.715-11.429c64.181-20.086,116.695-63.968,147.877-123.552    C510.224,308.933,516.322,240.769,496.236,176.587z"/><path d="M206.52,119.408l4.896-16.342l-85.291-25.587c-2.985-0.904-6.252-0.085-8.478,2.141l-17.058,17.058    c-1.987,1.987-2.866,4.827-2.354,7.591c0.512,2.763,2.354,5.092,4.921,6.235l76.762,34.116l6.926-15.591l-65.409-29.076    l4.674-4.674L206.52,119.408z"/><path d="M285.747,68.601c0-4.708-3.813-8.529-8.529-8.529c-0.009,0-0.009,0-0.017,0c-18.764,0-36.411,7.309-49.682,20.581    l-72.326,72.318l-29.434-7.361c-2.908-0.725-5.979,0.119-8.103,2.243l-17.058,17.058c-1.859,1.859-2.763,4.469-2.439,7.071    c0.324,2.601,1.825,4.921,4.077,6.269l40.82,24.495l24.495,40.82c1.348,2.252,3.659,3.753,6.269,4.077    c0.341,0.043,0.691,0.06,1.041,0.06c2.243,0,4.418-0.887,6.039-2.49l17.058-17.058c2.115-2.124,2.968-5.194,2.243-8.103    l-7.352-29.4l73.478-72.753C278.864,104.772,285.764,87.527,285.747,68.601z M177.385,181.935    c-2.141,2.115-3.002,5.203-2.277,8.128l7.361,29.434l-5.919,5.919l-19.967-33.28c-0.725-1.203-1.723-2.209-2.925-2.925    l-33.28-19.967l5.919-5.919l29.434,7.361c2.908,0.725,5.979-0.119,8.103-2.243l75.738-75.738    c7.847-7.855,17.723-12.947,28.436-14.798c-1.689,10.542-6.491,20.316-13.86,28.035L177.385,181.935z"/><path d="M268.322,220.802l-25.587-86.399l-16.359,4.845l24.043,81.18l-5.177,4.572l-28.436-65.964l-15.668,6.755l33.093,76.762    c1.083,2.508,3.301,4.35,5.97,4.947c0.623,0.136,1.245,0.205,1.868,0.205c2.056,0,4.068-0.742,5.638-2.132l18.082-15.949    C268.279,227.429,269.26,223.992,268.322,220.802z"/><path d="M166.604,470.286C105.86,499.071,58.208,502.79,35.896,480.487c-38.671-38.671,3.326-151.024,97.683-261.356    l-12.964-11.088C17.124,329.053-22.681,446.046,23.828,492.547c12.99,12.981,31.336,19.455,54.091,19.455    c26.525,0,59.038-8.793,95.986-26.304L166.604,470.286z"/><path d="M455.322,294.851c-1.484-2.772-4.375-4.503-7.523-4.503h-28.845l-23.233-46.458c-1.45-2.891-4.401-4.717-7.634-4.717    h-85.291c-4.717,0-8.529,3.821-8.529,8.529v68.233c0,4.717,3.813,8.529,8.529,8.529h25.587v93.82c0,4.717,3.812,8.529,8.529,8.529    h42.645c2.26,0,4.427-0.896,6.039-2.508l34.116-34.116c1.603-1.595,2.499-3.761,2.499-6.03v-31.532l32.683-49.025    C456.635,300.992,456.806,297.623,455.322,294.851z M406.578,345.318c-0.93,1.399-1.433,3.053-1.433,4.734v30.585l-29.118,29.118    h-30.585h-0.009v-93.82c0-4.717-3.812-8.529-8.529-8.529h-25.587v-51.174h71.491l23.233,46.458    c1.45,2.891,4.401,4.717,7.633,4.717h18.184L406.578,345.318z"/><path d="M461.267,222.115l-31.66-55.405c-1.518-2.661-4.35-4.299-7.403-4.299h-51.174c-2.849,0-5.51,1.424-7.096,3.795    l-14.525,21.792h-21.024v-42.645h42.645c2.269,0,4.427-0.896,6.03-2.499l31.617-31.617h39.114V94.179h-42.645    c-2.269,0-4.427,0.896-6.03,2.499l-31.617,31.617h-47.643c-4.717,0-8.529,3.821-8.529,8.529v59.703    c0,4.708,3.813,8.529,8.529,8.529h34.116c2.849,0,5.51-1.424,7.096-3.795l14.525-21.792h41.665l31.66,55.405    c1.518,2.661,4.35,4.299,7.403,4.299h34.116v-17.058H461.267z"/><path d="M251.622,307.406h-47.643l-23.088-23.088c-1.595-1.604-3.77-2.499-6.03-2.499h-42.645c-4.708,0-8.529,3.813-8.529,8.529    v59.703c0,4.717,3.821,8.529,8.529,8.529h34.116v85.291c0,3.233,1.825,6.184,4.717,7.633c1.203,0.597,2.516,0.896,3.813,0.896    c1.808,0,3.608-0.571,5.117-1.706l34.116-25.587c2.149-1.612,3.412-4.145,3.412-6.823v-21.493l39.447-31.549    c2.021-1.62,3.198-4.068,3.198-6.661v-42.645C260.151,311.219,256.33,307.406,251.622,307.406z M243.093,354.487l-39.447,31.549    c-2.021,1.621-3.198,4.068-3.198,6.661v21.323l-17.058,12.794v-76.762c0-4.717-3.821-8.529-8.529-8.529h-34.116v-42.645h30.585    l23.088,23.088c1.595,1.603,3.77,2.499,6.03,2.499h42.645V354.487z"/><path d="M79.821,183.607l-25.587-42.645c-1.535-2.567-4.316-4.137-7.309-4.137h-8.529v17.058h3.702l19.677,32.794l-20.879,20.879    c-1.604,1.595-2.499,3.77-2.499,6.03v25.587H12.808v17.058h34.116c4.708,0,8.529-3.821,8.529-8.529v-30.585l23.088-23.088    C81.305,191.257,81.834,186.967,79.821,183.607z"/><path d="M268.689,8.889v10.405l-27.66,6.917c-0.947,0.239-1.851,0.64-2.661,1.177L216.9,41.7l-46.748-23.378l-7.633,15.258    l51.174,25.587c1.203,0.597,2.508,0.896,3.813,0.896c1.655,0,3.301-0.486,4.725-1.433l24.359-16.239l32.692-8.171    c3.795-0.947,6.465-4.358,6.465-8.273V8.889H268.689z"/></g><g transform="matrix(0.05859375 0 0 0.05859375 335 160)" id="L1_1941"><path d="M125.765,430.773c-43.02,0-88.741,14.234-88.741,40.612s45.722,40.613,88.741,40.613  s88.741-14.235,88.741-40.613S168.784,430.773,125.765,430.773z" fill="#ffdb56"/><path d="M125.767,153.902c-69.22,0-125.535,56.315-125.535,125.535c0,42.977,20.444,89.185,60.765,137.341  c29.686,35.455,58.943,58.239,60.175,59.192c1.352,1.047,2.974,1.57,4.595,1.57c1.621,0,3.242-0.523,4.595-1.57  c1.231-0.953,30.49-23.737,60.175-59.192c40.321-48.156,60.765-94.365,60.765-137.341  C251.302,210.217,194.987,153.902,125.767,153.902z M172.842,279.437c0,25.998-21.076,47.074-47.075,47.074  c-25.998,0-47.074-21.076-47.074-47.074s21.076-47.075,47.074-47.075C151.766,232.362,172.842,253.439,172.842,279.437z" fill="#ff4a4a"/><path d="M460.525,220.803c-12.67-5.163-29.356-8.007-46.981-8.007c-17.624,0-34.31,2.844-46.981,8.007  c-14.807,6.034-22.962,14.893-22.962,24.944s8.154,18.911,22.962,24.944c12.67,5.163,29.355,8.007,46.981,8.007  c17.625,0,34.31-2.844,46.981-8.007c14.806-6.033,22.96-14.893,22.96-24.944S475.331,226.838,460.525,220.803z" fill="#ffdb56"/><g><path d="M125.765,493.246c-37.606,0-77.275-10.877-86.664-31.237c-1.351,2.93-2.077,6.057-2.077,9.377   c0,26.379,45.722,40.613,88.741,40.613s88.741-14.235,88.741-40.613c0-3.319-0.726-6.446-2.077-9.377   C203.041,482.368,163.372,493.246,125.765,493.246z" fill="#ffbb24"/><path d="M460.525,251.937c-12.67,5.163-29.355,8.007-46.981,8.007c-17.625,0-34.31-2.844-46.981-8.007   c-9.987-4.069-16.933-9.428-20.406-15.567c-1.676,2.963-2.555,6.104-2.555,9.377c0,10.051,8.154,18.911,22.962,24.944   c12.67,5.163,29.355,8.007,46.981,8.007c17.625,0,34.31-2.844,46.981-8.007c14.806-6.033,22.96-14.893,22.96-24.944   c0-3.271-0.879-6.414-2.555-9.377C477.458,242.509,470.511,247.868,460.525,251.937z" fill="#ffbb24"/></g><path d="M413.546,0c-54.159,0-98.22,44.062-98.22,98.22c0,33.45,15.85,69.339,47.108,106.673  c22.935,27.392,45.566,45.015,46.518,45.752c1.353,1.047,2.974,1.57,4.595,1.57c1.621,0,3.241-0.523,4.595-1.57  c0.952-0.737,23.584-18.36,46.518-45.752c31.258-37.333,47.107-73.222,47.107-106.673C511.765,44.062,467.704,0,413.546,0z   M449.727,98.22c0,19.982-16.199,36.181-36.181,36.181c-19.982,0-36.181-16.199-36.181-36.181s16.199-36.18,36.181-36.18  C433.528,62.04,449.727,78.238,449.727,98.22z" fill="#ff4a4a"/><g><path d="M125.767,153.902c-4.781,0-9.497,0.278-14.14,0.801c62.587,7.048,111.394,60.294,111.394,124.734   c0,42.977-20.444,89.185-60.765,137.341c-19.802,23.65-39.4,41.648-50.63,51.304c5.606,4.82,9.136,7.57,9.546,7.887   c1.352,1.047,2.974,1.57,4.595,1.57s3.242-0.523,4.595-1.57c1.231-0.953,30.49-23.737,60.175-59.192   c40.321-48.156,60.765-94.365,60.765-137.341C251.302,210.217,194.987,153.902,125.767,153.902z" fill="#e7343f"/><path d="M413.546,0c-4.801,0-9.522,0.352-14.141,1.022c47.481,6.876,84.08,47.841,84.08,97.198   c0,33.45-15.85,69.339-47.107,106.673c-14.096,16.836-28.068,29.971-36.973,37.774c5.583,4.892,9.179,7.694,9.546,7.977   c1.353,1.047,2.974,1.57,4.595,1.57c1.621,0,3.241-0.523,4.595-1.57c0.952-0.737,23.584-18.36,46.518-45.752   c31.258-37.333,47.107-73.222,47.107-106.673C511.765,44.062,467.704,0,413.546,0z" fill="#e7343f"/></g><path d="M242.226,478.903c-4.13,0-7.488-3.338-7.507-7.474c-0.019-4.147,3.327-7.524,7.474-7.542l9.916-0.045  c0.012,0,0.023,0,0.035,0c4.13,0,7.489,3.338,7.507,7.474c0.019,4.147-3.327,7.524-7.474,7.542l-9.916,0.045  C242.249,478.903,242.237,478.903,242.226,478.903z M281.891,478.723c-4.13,0-7.488-3.338-7.507-7.474  c-0.019-4.147,3.327-7.524,7.474-7.542l9.916-0.045c0.012,0,0.023,0,0.035,0c4.13,0,7.488,3.338,7.507,7.474  c0.019,4.147-3.327,7.524-7.474,7.542l-9.916,0.045C281.914,478.723,281.902,478.723,281.891,478.723z M321.557,478.542  c-4.13,0-7.488-3.338-7.507-7.474c-0.019-4.146,3.327-7.524,7.474-7.542l9.915-0.045c0.012,0,0.023,0,0.035,0  c4.13,0,7.488,3.338,7.507,7.474c0.018,4.147-3.327,7.524-7.474,7.542l-9.915,0.045C321.58,478.542,321.568,478.542,321.557,478.542  z M361.223,478.362c-4.13,0-7.488-3.338-7.507-7.474c-0.019-4.146,3.327-7.524,7.474-7.542l9.916-0.045c0.012,0,0.023,0,0.035,0  c4.13,0,7.488,3.338,7.507,7.474c0.018,4.146-3.327,7.524-7.474,7.542l-9.916,0.045  C361.246,478.362,361.234,478.362,361.223,478.362z M400.888,478.183c-4.13,0-7.488-3.338-7.507-7.474  c-0.019-4.147,3.327-7.524,7.474-7.542l9.916-0.045c0.012,0,0.023,0,0.035,0c4.13,0,7.488,3.338,7.507,7.474  c0.019,4.147-3.327,7.524-7.474,7.542l-9.916,0.045C400.911,478.183,400.9,478.183,400.888,478.183z M440.554,478.003  c-4.129,0-7.487-3.337-7.507-7.472c-0.021-4.146,3.324-7.524,7.472-7.544l1.405-0.007c2.512-0.011,5.029-0.189,7.488-0.529  c4.1-0.572,7.896,2.302,8.465,6.41c0.567,4.107-2.302,7.897-6.41,8.465c-3.115,0.43-6.303,0.656-9.474,0.67l-1.402,0.007  C440.579,478.003,440.566,478.003,440.554,478.003z M477.905,466.692c-2.379,0-4.719-1.128-6.177-3.231  c-2.361-3.408-1.515-8.085,1.893-10.449c2.392-1.657,4.671-3.516,6.778-5.523c3-2.861,7.753-2.746,10.615,0.256  c2.86,3.001,2.746,7.754-0.256,10.615c-2.667,2.542-5.554,4.894-8.58,6.992C480.871,466.258,479.381,466.692,477.905,466.692z   M501.649,435.732c-0.837,0-1.689-0.141-2.522-0.438c-3.906-1.393-5.942-5.688-4.551-9.593c0.976-2.735,1.742-5.57,2.28-8.428  c0.768-4.075,4.698-6.755,8.767-5.988c4.074,0.767,6.756,4.693,5.988,8.767c-0.683,3.625-1.655,7.223-2.893,10.692  C507.625,433.816,504.733,435.732,501.649,435.732z M502.864,396.732c-3.263,0-6.268-2.145-7.212-5.439  c-0.801-2.79-1.831-5.542-3.061-8.177c-1.753-3.758-0.128-8.226,3.629-9.979c3.762-1.752,8.226-0.128,9.979,3.629  c1.562,3.346,2.868,6.839,3.886,10.384c1.143,3.985-1.159,8.144-5.145,9.288C504.247,396.637,503.55,396.732,502.864,396.732z   M481.089,364.343c-1.63,0-3.269-0.527-4.648-1.615c-2.283-1.804-4.726-3.44-7.256-4.866c-3.613-2.034-4.892-6.614-2.857-10.226  c2.035-3.613,6.616-4.893,10.226-2.857c3.206,1.806,6.299,3.879,9.192,6.162c3.254,2.569,3.81,7.291,1.24,10.545  C485.505,363.364,483.308,364.343,481.089,364.343z M444.541,350.735c-0.112,0-0.225-0.002-0.338-0.008  c-0.839-0.037-1.684-0.056-2.532-0.056h-7.051c-4.147,0-7.508-3.36-7.508-7.508c0-4.146,3.36-7.508,7.508-7.508h7.051  c1.059,0,2.134,0.023,3.196,0.071c4.142,0.183,7.352,3.69,7.167,7.832C451.858,347.589,448.534,350.735,444.541,350.735z   M404.871,350.672h-9.916c-4.147,0-7.508-3.36-7.508-7.508c0-4.146,3.361-7.508,7.508-7.508h9.916c4.147,0,7.508,3.362,7.508,7.508  C412.379,347.311,409.018,350.672,404.871,350.672z M365.205,350.672h-9.916c-4.147,0-7.508-3.36-7.508-7.508  c0-4.146,3.361-7.508,7.508-7.508h9.916c4.147,0,7.508,3.362,7.508,7.508C372.713,347.311,369.352,350.672,365.205,350.672z   M325.538,350.672h-9.916c-4.147,0-7.508-3.36-7.508-7.508c0-4.146,3.361-7.508,7.508-7.508h9.916c4.147,0,7.508,3.362,7.508,7.508  C333.046,347.311,329.686,350.672,325.538,350.672z M287.289,343.204c-1.369,0-2.755-0.374-3.998-1.158  c-3.219-2.03-6.243-4.401-8.991-7.042c-2.988-2.874-3.081-7.627-0.206-10.615c2.872-2.986,7.626-3.081,10.615-0.206  c2.015,1.937,4.233,3.676,6.593,5.163c3.508,2.212,4.558,6.849,2.345,10.356C292.218,341.964,289.78,343.204,287.289,343.204z   M265.468,311.398c-3.522,0-6.663-2.488-7.362-6.072c-0.688-3.532-1.037-7.16-1.037-10.786l0.003-0.592  c0.048-4.116,3.4-7.421,7.506-7.421c0.03,0,0.06,0,0.089,0.001c4.147,0.048,7.469,3.448,7.42,7.594l-0.002,0.417  c0,2.664,0.256,5.327,0.76,7.914c0.793,4.07-1.863,8.012-5.933,8.805C266.427,311.353,265.943,311.398,265.468,311.398z   M273.673,273.717c-1.518,0-3.048-0.458-4.374-1.41c-3.368-2.419-4.137-7.11-1.719-10.478c2.222-3.094,4.768-5.971,7.567-8.552  c3.05-2.811,7.798-2.618,10.609,0.428c2.812,3.048,2.62,7.798-0.428,10.609c-2.053,1.894-3.921,4.005-5.551,6.275  C278.31,272.63,276.009,273.717,273.673,273.717z M306.725,253.849c-3.706,0-6.93-2.744-7.433-6.519  c-0.547-4.11,2.342-7.886,6.452-8.433c2.454-0.326,4.962-0.492,7.458-0.492h3.428c4.147,0,7.508,3.361,7.508,7.508  s-3.361,7.508-7.508,7.508h-3.428c-1.836,0-3.679,0.121-5.478,0.36C307.388,253.828,307.055,253.849,306.725,253.849z" fill="#1ea4e9"/></g><g transform="matrix(0.13671875 0 0 0.13671875 140 140)" id="L1_1942"><g><path d="M128,160c0-8.832-7.168-16-16-16H16c-8.832,0-16,7.168-16,16s7.168,16,16,16h96   C120.832,176,128,168.832,128,160z" fill="#ffc107"/><path d="M112,208H48c-8.832,0-16,7.168-16,16s7.168,16,16,16h64c8.832,0,16-7.168,16-16S120.832,208,112,208   z" fill="#ffc107"/><path d="M112,272H80c-8.832,0-16,7.168-16,16s7.168,16,16,16h32c8.832,0,16-7.168,16-16S120.832,272,112,272   z" fill="#ffc107"/></g><path d="M509.728,263.776l-48-80C458.848,178.944,453.632,176,448,176H336c-8.832,0-16,7.168-16,16v160  c0,8.832,7.168,16,16,16h160c8.832,0,16-7.168,16-16v-80C512,269.088,511.232,266.24,509.728,263.776z" fill="#f44336"/><path d="M384,208 438.944,208 477.344,272 384,272z" fill="#fafafa"/><path d="M336,112H112c-8.832,0-16,7.168-16,16v224c0,8.832,7.168,16,16,16h240V128  C352,119.168,344.832,112,336,112z" fill="#ffc107"/><circle cx="432" cy="352" r="32" fill="#fafafa"/><path d="M432,400c-26.464,0-48-21.536-48-48s21.536-48,48-48s48,21.536,48,48S458.464,400,432,400z M432,336  c-8.8,0-16,7.2-16,16s7.2,16,16,16s16-7.2,16-16S440.8,336,432,336z" fill="#455a64"/><path d="M352,368H112c-8.832,0-16-7.168-16-16v-48h256V368z" fill="#f44336"/><circle cx="208" cy="352" r="32" fill="#fafafa"/><path d="M208,400c-26.464,0-48-21.536-48-48s21.536-48,48-48s48,21.536,48,48S234.464,400,208,400z M208,336  c-8.832,0-16,7.2-16,16s7.168,16,16,16s16-7.2,16-16S216.832,336,208,336z" fill="#455a64"/></g><path d="M165,0C74.019,0,0,74.019,0,165s74.019,165,165,165c90.982,0,165-74.019,165-165S255.982,0,165,0z" transform="matrix(0.03030303120613098 0 0 0.03030303120613098 257.5 257.5)" id="L1_1943" fill="#1a54e0"/></defs><g fi:class="KUsePattern"><pattern id="pattern_L1_1939" width="350" height="350" patternUnits="userSpaceOnUse"><use xlink:href="#L1_1939" x="-350" y="-350"/><use xlink:href="#L1_1939" x="0" y="-350"/><use xlink:href="#L1_1939" x="350" y="-350"/><use xlink:href="#L1_1939" x="-350" y="0"/><use xlink:href="#L1_1939" x="0" y="0"/><use xlink:href="#L1_1939" x="350" y="0"/><use xlink:href="#L1_1939" x="-350" y="350"/><use xlink:href="#L1_1939" x="0" y="350"/><use xlink:href="#L1_1939" x="350" y="350"/></pattern><rect x="0" y="0" width="100%" height="100%" fill="url(#pattern_L1_1939)"/></g><g fi:class="KUsePattern"><pattern id="pattern_L1_1940" width="350" height="350" patternUnits="userSpaceOnUse"><use xlink:href="#L1_1940" x="-350" y="-350"/><use xlink:href="#L1_1940" x="0" y="-350"/><use xlink:href="#L1_1940" x="350" y="-350"/><use xlink:href="#L1_1940" x="-350" y="0"/><use xlink:href="#L1_1940" x="0" y="0"/><use xlink:href="#L1_1940" x="350" y="0"/><use xlink:href="#L1_1940" x="-350" y="350"/><use xlink:href="#L1_1940" x="0" y="350"/><use xlink:href="#L1_1940" x="350" y="350"/></pattern><rect x="0" y="0" width="100%" height="100%" fill="url(#pattern_L1_1940)"/></g><g fi:class="KUsePattern"><pattern id="pattern_L1_1941" width="350" height="350" patternUnits="userSpaceOnUse"><use xlink:href="#L1_1941" x="-350" y="-350"/><use xlink:href="#L1_1941" x="0" y="-350"/><use xlink:href="#L1_1941" x="350" y="-350"/><use xlink:href="#L1_1941" x="-350" y="0"/><use xlink:href="#L1_1941" x="0" y="0"/><use xlink:href="#L1_1941" x="350" y="0"/><use xlink:href="#L1_1941" x="-350" y="350"/><use xlink:href="#L1_1941" x="0" y="350"/><use xlink:href="#L1_1941" x="350" y="350"/></pattern><rect x="0" y="0" width="100%" height="100%" fill="url(#pattern_L1_1941)"/></g><g fi:class="KUsePattern"><pattern id="pattern_L1_1942" width="350" height="350" patternUnits="userSpaceOnUse"><use xlink:href="#L1_1942" x="-350" y="-350"/><use xlink:href="#L1_1942" x="0" y="-350"/><use xlink:href="#L1_1942" x="350" y="-350"/><use xlink:href="#L1_1942" x="-350" y="0"/><use xlink:href="#L1_1942" x="0" y="0"/><use xlink:href="#L1_1942" x="350" y="0"/><use xlink:href="#L1_1942" x="-350" y="350"/><use xlink:href="#L1_1942" x="0" y="350"/><use xlink:href="#L1_1942" x="350" y="350"/></pattern><rect x="0" y="0" width="100%" height="100%" fill="url(#pattern_L1_1942)"/></g><g fi:class="KUsePattern"><pattern id="pattern_L1_1943" width="350" height="350" patternUnits="userSpaceOnUse"><use xlink:href="#L1_1943" x="-350" y="-350"/><use xlink:href="#L1_1943" x="0" y="-350"/><use xlink:href="#L1_1943" x="350" y="-350"/><use xlink:href="#L1_1943" x="-350" y="0"/><use xlink:href="#L1_1943" x="0" y="0"/><use xlink:href="#L1_1943" x="350" y="0"/><use xlink:href="#L1_1943" x="-350" y="350"/><use xlink:href="#L1_1943" x="0" y="350"/><use xlink:href="#L1_1943" x="350" y="350"/></pattern><rect x="0" y="0" width="100%" height="100%" fill="url(#pattern_L1_1943)"/></g></svg>